<svg xmlns="http://www.w3.org/2000/svg" xmlns:xlink="http://www.w3.org/1999/xlink" width="500" zoomAndPan="magnify" viewBox="0 0 375 165.000002" height="220" preserveAspectRatio="xMidYMid meet" version="1.0"><defs><g/></defs><g fill="#2b2b2b" fill-opacity="1"><g transform="translate(10.743698, 77.734072)"><g><path d="M 69.082031 -53.246094 C 68.570312 -54.394531 67.675781 -55.671875 66.65625 -56.4375 C 63.589844 -58.738281 58.097656 -59.121094 54.140625 -58.738281 C 48.777344 -58.226562 44.945312 -56.695312 37.542969 -53.246094 C 34.605469 -51.84375 32.179688 -50.054688 29.496094 -48.011719 C 27.453125 -46.480469 25.664062 -44.691406 24.390625 -42.519531 C 21.835938 -38.691406 21.453125 -34.347656 23.496094 -29.753906 C 25.28125 -25.539062 30.007812 -22.089844 32.304688 -20.6875 C 34.859375 -19.027344 37.414062 -17.238281 40.222656 -15.832031 C 44.308594 -13.917969 48.265625 -11.492188 51.585938 -8.425781 C 53.503906 -6.640625 55.289062 -4.851562 56.3125 -2.425781 C 57.589844 0.253906 57.078125 2.679688 55.671875 4.851562 C 54.523438 6.640625 52.863281 8.425781 51.078125 9.578125 C 46.605469 12.515625 39.96875 15.832031 33.070312 16.855469 C 30.136719 17.367188 27.199219 17.492188 24.261719 17.367188 C 21.835938 17.238281 19.28125 16.472656 16.726562 14.941406 C 13.152344 12.769531 11.746094 7.023438 12.003906 3.191406 C 12.386719 -1.789062 15.578125 -4.339844 19.792969 -5.617188 C 21.960938 -6.382812 18.132812 -10.214844 15.066406 -8.683594 C 14.429688 -8.425781 6.257812 -0.253906 6.382812 2.808594 C 6.769531 11.621094 12.769531 18.132812 22.089844 19.792969 C 27.582031 20.6875 33.070312 20.8125 38.5625 19.917969 C 46.734375 18.644531 56.4375 14.429688 60.269531 9.066406 C 61.929688 6.640625 62.570312 3.957031 61.417969 0.765625 C 59.886719 -2.9375 57.714844 -6.128906 54.652344 -8.8125 C 50.691406 -12.257812 46.351562 -15.066406 41.628906 -17.492188 C 40.734375 -18.003906 39.839844 -18.386719 38.945312 -19.027344 C 36.773438 -20.304688 34.347656 -21.578125 32.179688 -23.113281 C 27.964844 -26.433594 25.027344 -31.796875 28.21875 -37.667969 C 31.539062 -43.414062 37.414062 -46.097656 39.328125 -47.757812 L 42.394531 -50.054688 C 42.648438 -50.949219 43.03125 -51.332031 43.671875 -51.332031 C 44.179688 -51.332031 45.074219 -51.585938 45.457031 -51.84375 C 45.96875 -52.097656 46.222656 -52.351562 46.734375 -52.738281 C 47.246094 -53.628906 53.628906 -54.78125 54.78125 -55.035156 C 54.78125 -55.035156 56.4375 -54.78125 57.207031 -55.289062 L 59.503906 -55.035156 C 60.910156 -54.90625 63.207031 -53.628906 64.101562 -51.84375 C 65.121094 -49.800781 65.121094 -47.882812 64.867188 -45.839844 C 64.355469 -42.136719 63.207031 -40.734375 60.78125 -38.433594 C 59.121094 -36.773438 57.460938 -36.265625 57.84375 -35.242188 C 59.757812 -32.050781 61.929688 -32.816406 64.613281 -34.859375 C 69.976562 -39.328125 71.761719 -47.117188 69.082031 -53.246094 Z M 69.082031 -53.246094 "/></g></g></g><g fill="#2b2b2b" fill-opacity="1"><g transform="translate(70.87863, 77.734072)"><g><path d="M 10.597656 -27.964844 C 11.363281 -27.453125 12.128906 -27.453125 12.769531 -27.707031 C 13.917969 -28.476562 15.066406 -29.242188 15.578125 -30.644531 C 16.089844 -32.050781 15.578125 -33.453125 15.195312 -34.730469 C 14.941406 -35.625 14.171875 -36.007812 12.769531 -35.882812 C 12.769531 -35.882812 12.257812 -35.882812 12.128906 -35.753906 C 10.46875 -34.859375 9.066406 -33.964844 8.425781 -32.050781 C 8.171875 -30.773438 8.425781 -29.753906 9.195312 -28.859375 C 9.578125 -28.476562 10.214844 -28.21875 10.597656 -27.964844 Z M 27.835938 -14.300781 C 28.476562 -15.449219 28.347656 -16.214844 28.09375 -16.472656 C 26.433594 -14.8125 24.773438 -13.40625 23.238281 -12.003906 C 21.324219 -10.214844 19.535156 -8.171875 17.492188 -6.382812 C 15.578125 -4.46875 13.28125 -2.679688 11.238281 -0.894531 C 10.214844 0 9.066406 0.511719 7.660156 0.894531 C 7.789062 -0.382812 8.171875 -1.53125 8.171875 -2.679688 C 8.300781 -3.957031 9.066406 -5.109375 8.683594 -6.257812 C 8.683594 -6.511719 8.8125 -6.640625 8.9375 -6.894531 C 9.066406 -7.40625 9.320312 -7.917969 9.578125 -8.425781 C 10.085938 -10.085938 10.597656 -11.621094 10.980469 -13.152344 C 11.238281 -13.789062 11.492188 -14.429688 11.492188 -15.195312 C 11.621094 -15.832031 11.621094 -16.601562 11.363281 -17.109375 C 11.109375 -17.621094 10.46875 -18.132812 9.960938 -18.515625 C 9.578125 -19.152344 8.683594 -19.535156 8.300781 -20.175781 C 7.917969 -20.8125 7.535156 -20.558594 7.152344 -20.429688 C 6.640625 -20.429688 6.511719 -20.046875 6.640625 -19.535156 L 6.640625 -18.515625 C 6 -16.089844 5.363281 -13.917969 4.851562 -11.621094 C 4.339844 -9.960938 3.832031 -8.300781 3.574219 -6.640625 C 2.9375 -4.339844 2.425781 -1.914062 2.679688 0.253906 C 2.808594 0.765625 3.191406 1.023438 3.320312 1.53125 C 3.574219 1.789062 3.832031 2.171875 3.957031 2.554688 C 4.085938 2.808594 4.085938 3.191406 4.339844 3.320312 C 5.234375 3.957031 5.746094 5.109375 7.023438 5.363281 C 7.917969 5.617188 8.554688 6 9.578125 5.746094 C 10.46875 5.234375 11.363281 4.851562 12.128906 4.46875 C 12.898438 4.214844 13.664062 4.085938 14.171875 3.574219 C 14.941406 3.066406 15.578125 2.554688 16.089844 1.914062 C 16.855469 0.894531 17.75 -0.128906 18.769531 -0.765625 L 19.410156 -1.40625 C 19.664062 -1.660156 19.792969 -2.042969 20.046875 -2.296875 L 21.453125 -4.339844 C 23.238281 -6.894531 23.496094 -8.042969 24.007812 -8.683594 C 24.773438 -9.578125 27.582031 -14.046875 27.707031 -14.171875 Z M 27.835938 -14.300781 "/></g></g></g><g fill="#2b2b2b" fill-opacity="1"><g transform="translate(85.047947, 77.734072)"><g><path d="M 41.246094 12.769531 C 42.011719 11.875 42.011719 11.621094 42.011719 11.238281 C 42.265625 10.980469 42.519531 10.855469 42.519531 10.597656 C 42.777344 10.085938 42.265625 9.195312 42.011719 9.449219 C 40.222656 10.085938 39.199219 9.449219 38.433594 7.917969 C 37.796875 5.492188 37.796875 4.980469 37.542969 4.214844 C 37.285156 3.191406 37.285156 2.042969 37.15625 0.894531 C 37.285156 0.128906 36.773438 -0.765625 37.285156 -1.53125 L 37.285156 -2.171875 C 37.285156 -2.808594 37.285156 -3.449219 37.15625 -3.832031 C 37.285156 -4.722656 37.285156 -6 36.136719 -6 L 35.371094 -7.152344 C 34.09375 -7.660156 33.582031 -8.300781 32.304688 -8.683594 C 32.050781 -8.9375 31.410156 -8.8125 31.027344 -8.683594 C 30.007812 -7.789062 29.496094 -7.535156 28.984375 -7.152344 C 28.09375 -6.640625 27.199219 -6 26.433594 -5.363281 C 25.027344 -4.214844 22.984375 -2.171875 21.324219 -0.765625 C 21.578125 -2.171875 21.835938 -4.980469 22.21875 -6 C 22.730469 -7.023438 22.472656 -8.171875 22.601562 -9.320312 C 22.730469 -9.703125 22.601562 -10.214844 22.472656 -10.46875 C 22.21875 -11.492188 22.472656 -12.515625 22.089844 -13.40625 C 21.578125 -13.40625 21.195312 -13.664062 20.6875 -13.40625 C 19.410156 -13.023438 18.261719 -13.535156 17.492188 -14.429688 C 16.984375 -14.8125 16.601562 -14.941406 16.089844 -14.558594 C 15.066406 -13.789062 14.300781 -12.769531 13.40625 -11.875 C 12.003906 -10.46875 11.109375 -8.554688 9.960938 -7.152344 C 8.300781 -4.339844 7.660156 -3.449219 7.277344 -2.679688 C 7.152344 -2.554688 6.894531 -2.425781 6.511719 -2.296875 C 6.769531 -3.703125 8.300781 -7.660156 8.425781 -8.683594 C 8.9375 -10.46875 9.195312 -12.128906 9.449219 -13.789062 C 9.832031 -15.066406 9.960938 -16.472656 9.703125 -17.75 C 9.449219 -18.898438 8.8125 -19.152344 7.917969 -19.410156 C 7.152344 -19.664062 6.769531 -19.664062 5.746094 -19.792969 C 5.746094 -19.535156 5.234375 -19.027344 5.363281 -18.769531 C 5.617188 -18.261719 5.363281 -17.621094 5.363281 -16.984375 C 4.722656 -14.558594 4.339844 -12.003906 3.703125 -9.578125 C 2.554688 -5.363281 1.660156 -1.148438 1.277344 3.191406 C 1.148438 4.597656 1.40625 5.875 2.171875 6.894531 L 3.832031 7.917969 L 4.851562 7.152344 C 4.980469 6.769531 5.234375 6.511719 5.492188 6.382812 C 6 5.875 6.769531 5.617188 7.152344 4.980469 C 8.300781 3.191406 9.320312 1.40625 10.597656 -0.382812 L 11.363281 -2.042969 L 13.28125 -4.46875 C 13.917969 -5.363281 15.324219 -7.023438 16.855469 -8.9375 C 17.109375 -8.554688 17.238281 -8.300781 17.109375 -8.171875 C 16.855469 -6.257812 16.214844 -2.554688 15.960938 -0.765625 L 16.726562 2.042969 C 16.726562 2.296875 17.238281 2.554688 17.367188 2.808594 C 17.492188 3.191406 17.875 3.191406 17.875 3.449219 C 18.003906 3.957031 18.261719 4.214844 18.769531 4.085938 L 20.175781 4.722656 C 20.8125 4.851562 21.195312 4.980469 21.578125 4.980469 L 22.472656 4.214844 C 23.496094 3.449219 24.773438 3.066406 25.664062 1.914062 C 27.070312 0.253906 28.859375 -1.023438 30.519531 -2.679688 C 30.644531 -2.808594 30.902344 -2.808594 30.902344 -3.066406 C 31.667969 -3.703125 32.050781 -3.832031 32.433594 -3.703125 L 32.5625 -0.894531 C 32.433594 0.382812 32.816406 2.171875 32.816406 3.832031 C 32.945312 5.617188 33.710938 7.277344 33.964844 8.425781 C 34.605469 9.960938 35.5 11.363281 36.648438 12.003906 C 37.796875 13.023438 40.734375 13.023438 41.246094 12.769531 Z M 41.246094 12.769531 "/></g></g></g><g fill="#2b2b2b" fill-opacity="1"><g transform="translate(120.284877, 77.734072)"><g><path d="M -7.789062 56.566406 C -7.277344 56.4375 -6.769531 56.3125 -6.511719 56.183594 C -6.511719 55.546875 -6.382812 55.164062 -6.257812 54.652344 C -6.257812 54.652344 -6 54.652344 -6 54.78125 C -5.875 54.652344 -5.746094 54.523438 -5.746094 54.394531 C -5.492188 53.757812 -5.363281 52.738281 -5.234375 52.097656 C -5.109375 51.714844 -4.851562 50.949219 -4.980469 50.566406 C -5.234375 49.671875 -4.851562 48.523438 -4.851562 47.757812 C -4.722656 46.480469 -4.214844 45.074219 -4.085938 44.054688 C -4.085938 43.671875 -4.214844 43.414062 -4.214844 43.414062 C -3.957031 42.519531 -3.703125 41.882812 -3.449219 40.988281 L -3.957031 40.734375 C -2.9375 39.96875 -2.808594 38.308594 -3.191406 37.925781 C -2.9375 37.414062 -2.808594 37.285156 -2.808594 36.902344 C -2.679688 36.136719 -2.679688 35.625 -2.425781 34.605469 C -2.425781 34.476562 -2.171875 34.222656 -2.171875 33.964844 C -2.042969 32.179688 -1.914062 30.519531 -0.511719 27.835938 L -0.511719 25.792969 L 0.128906 23.878906 C 0 23.75 0 23.496094 0 23.367188 C 0.253906 22.601562 0.382812 21.835938 0.636719 20.8125 C 1.023438 20.046875 1.40625 18.769531 1.660156 17.492188 C 1.789062 16.855469 1.660156 16.214844 1.789062 15.449219 C 1.660156 15.449219 1.660156 15.449219 1.40625 15.324219 C 1.660156 15.324219 1.789062 15.195312 1.914062 15.195312 C 1.789062 15.066406 1.660156 15.066406 1.40625 14.941406 C 2.296875 14.558594 3.066406 12.515625 2.679688 10.726562 C 3.574219 10.597656 3.191406 9.960938 3.320312 9.578125 C 3.574219 8.9375 3.832031 8.425781 3.320312 8.171875 C 3.449219 8.042969 3.832031 8.042969 3.832031 7.917969 C 4.085938 7.152344 4.214844 6.511719 4.46875 5.617188 C 4.46875 5.617188 4.339844 5.617188 4.214844 5.492188 L 4.085938 5.492188 C 5.363281 5.492188 5.234375 4.214844 5.875 3.449219 C 5.617188 3.574219 6.382812 1.660156 6.769531 1.148438 C 6.769531 1.023438 6.769531 0.765625 6.511719 0.636719 L 7.277344 0.636719 C 7.660156 -0.382812 9.066406 -3.320312 9.703125 -3.957031 C 10.980469 -5.234375 12.257812 -6.769531 13.28125 -8.425781 C 14.046875 -9.832031 15.324219 -10.46875 16.472656 -11.492188 C 17.238281 -12.003906 17.875 -12.386719 18.515625 -13.152344 C 19.027344 -13.40625 19.410156 -13.917969 19.792969 -14.300781 L 20.046875 -14.300781 C 20.8125 -14.941406 21.578125 -15.195312 22.730469 -15.707031 C 23.367188 -16.214844 24.898438 -16.34375 25.410156 -15.707031 C 25.664062 -15.066406 26.050781 -14.171875 26.050781 -13.40625 C 26.304688 -12.257812 25.792969 -11.363281 25.410156 -10.214844 C 25.410156 -9.960938 25.027344 -9.578125 24.898438 -9.066406 L 24.898438 -8.554688 C 24.132812 -7.277344 23.496094 -6.382812 22.730469 -5.363281 C 22.089844 -4.214844 20.941406 -3.320312 20.046875 -2.425781 C 19.410156 -1.660156 18.644531 -0.765625 17.367188 -0.511719 C 16.855469 -0.382812 16.089844 -0.636719 16.089844 -1.660156 C 15.960938 -2.171875 15.960938 -2.808594 15.195312 -2.808594 C 15.195312 -2.171875 14.683594 -1.789062 14.941406 -1.40625 C 15.066406 -0.128906 15.449219 1.023438 16.472656 1.53125 L 16.726562 1.660156 C 16.855469 2.425781 17.238281 2.554688 17.75 2.808594 C 18.515625 3.066406 19.28125 3.449219 19.917969 3.574219 C 20.046875 3.703125 20.429688 3.574219 20.6875 3.574219 C 21.707031 3.066406 22.472656 2.808594 23.496094 2.171875 L 26.175781 -0.128906 C 26.941406 -1.40625 27.964844 -2.425781 28.859375 -3.574219 C 29.367188 -4.851562 30.519531 -6.382812 30.773438 -7.789062 C 31.410156 -9.066406 31.027344 -10.855469 31.027344 -12.257812 C 31.027344 -12.769531 30.902344 -13.28125 30.902344 -13.917969 C 31.027344 -14.171875 31.027344 -14.300781 30.773438 -14.300781 C 30.519531 -15.707031 27.199219 -17.75 27.070312 -17.75 C 26.175781 -18.003906 25.792969 -18.261719 25.15625 -18.386719 C 24.390625 -18.515625 23.238281 -18.898438 22.347656 -18.898438 C 21.070312 -18.898438 19.792969 -18.769531 18.261719 -18.003906 L 16.214844 -16.472656 L 13.917969 -15.195312 C 13.664062 -15.066406 13.664062 -14.941406 13.535156 -14.429688 C 13.535156 -14.300781 13.152344 -14.046875 13.023438 -13.917969 C 9.960938 -9.832031 8.683594 -6.894531 8.8125 -6.894531 C 7.660156 -5.109375 7.40625 -5.234375 7.023438 -4.597656 C 7.152344 -5.492188 7.40625 -6.257812 7.660156 -6.769531 L 7.660156 -7.023438 C 7.917969 -9.960938 8.300781 -10.46875 8.425781 -11.746094 L 8.683594 -11.746094 C 8.9375 -13.152344 9.320312 -14.046875 9.578125 -15.195312 C 9.703125 -15.324219 9.703125 -15.578125 9.832031 -15.707031 C 9.449219 -16.214844 9.449219 -16.472656 9.960938 -16.726562 C 10.085938 -17.109375 10.214844 -17.621094 10.214844 -17.875 C 10.46875 -18.386719 10.46875 -18.769531 10.34375 -19.152344 L 9.960938 -20.8125 C 9.578125 -21.578125 9.066406 -22.347656 7.917969 -22.21875 L 7.535156 -22.21875 C 6.769531 -22.347656 6.511719 -22.089844 6.382812 -21.195312 C 5.746094 -20.046875 5.492188 -19.027344 5.109375 -18.003906 C 4.722656 -16.34375 4.214844 -14.683594 3.703125 -13.023438 C 3.449219 -11.621094 3.066406 -10.34375 2.9375 -9.066406 C 2.296875 -6.769531 2.042969 -4.597656 1.53125 -2.425781 C 1.40625 -1.277344 0.894531 0 0.636719 1.277344 C 0.128906 3.320312 -0.382812 5.109375 -0.765625 7.023438 C -1.277344 9.703125 -1.914062 12.515625 -2.808594 15.195312 C -2.808594 15.707031 -2.9375 16.214844 -3.066406 16.855469 C -3.320312 18.386719 -4.851562 24.773438 -5.875 27.707031 C -6 27.835938 -6.382812 28.347656 -6.128906 28.601562 C -5.875 29.113281 -6 29.753906 -6.382812 30.261719 C -6.640625 30.644531 -6.769531 31.027344 -6.894531 31.539062 C -6.640625 31.539062 -6.511719 31.539062 -6.128906 31.667969 C -6.894531 32.050781 -7.152344 33.328125 -6.640625 34.476562 C -6.894531 34.476562 -7.023438 34.347656 -7.152344 34.347656 C -8.554688 40.734375 -9.578125 47.117188 -11.492188 53.628906 L -10.34375 55.035156 L -9.449219 55.164062 C -8.8125 55.800781 -8.300781 56.3125 -7.789062 56.566406 Z M -7.789062 56.566406 "/></g></g></g><g fill="#2b2b2b" fill-opacity="1"><g transform="translate(143.775004, 77.734072)"><g><path d="M 41.246094 -73.421875 C 40.988281 -74.0625 40.988281 -74.699219 40.859375 -75.71875 C 40.988281 -75.847656 40.988281 -76.105469 40.859375 -76.230469 L 40.09375 -76.871094 C 39.585938 -77.378906 38.945312 -77.890625 38.308594 -78.148438 C 37.925781 -78.402344 37.285156 -78.65625 36.773438 -78.914062 C 34.988281 -79.421875 33.453125 -79.808594 32.050781 -78.402344 C 31.027344 -77.378906 29.878906 -76.230469 28.730469 -75.210938 C 27.582031 -74.0625 26.433594 -72.402344 25.539062 -70.742188 L 20.558594 -61.546875 C 20.429688 -61.292969 20.175781 -61.292969 20.046875 -61.035156 L 19.027344 -58.867188 L 18.132812 -55.929688 C 18.003906 -55.417969 16.984375 -53.757812 16.726562 -53.628906 C 16.726562 -53.375 13.664062 -45.585938 13.535156 -45.332031 C 13.023438 -44.5625 13.023438 -43.796875 12.769531 -43.03125 C 12.257812 -42.011719 11.875 -40.859375 11.363281 -39.96875 C 10.855469 -38.179688 10.085938 -36.136719 9.578125 -34.222656 C 8.9375 -32.5625 8.683594 -30.773438 8.300781 -29.367188 C 7.917969 -27.582031 7.789062 -26.941406 7.40625 -25.539062 C 7.152344 -24.515625 7.152344 -24.261719 7.152344 -23.75 L 6.382812 -19.535156 C 5.492188 -14.429688 5.492188 -13.152344 5.363281 -11.492188 C 4.980469 -7.789062 4.980469 -5.617188 5.363281 -2.425781 C 5.617188 -1.023438 5.875 0.382812 6.257812 1.53125 C 6.769531 2.679688 7.023438 3.703125 7.660156 4.597656 C 8.425781 5.492188 8.9375 6.257812 9.578125 7.023438 C 9.960938 7.40625 10.855469 8.171875 11.492188 8.425781 C 13.789062 9.449219 14.941406 9.320312 16.601562 8.9375 C 19.28125 8.171875 20.6875 3.066406 18.644531 3.957031 C 16.601562 5.363281 15.449219 6.257812 13.40625 5.363281 C 12.515625 4.980469 11.363281 3.191406 10.855469 1.914062 C 9.832031 -0.511719 9.320312 -3.449219 9.195312 -6.894531 C 9.066406 -9.066406 9.578125 -12.515625 9.832031 -14.558594 C 10.085938 -16.214844 10.726562 -18.644531 11.363281 -19.664062 C 13.023438 -21.070312 15.066406 -23.238281 16.472656 -24.773438 L 19.027344 -27.199219 C 19.410156 -27.582031 19.410156 -28.21875 20.046875 -28.730469 C 20.046875 -28.730469 20.175781 -28.859375 20.429688 -28.730469 L 27.324219 -37.414062 C 28.21875 -38.691406 36.007812 -52.480469 36.136719 -52.351562 C 36.390625 -53.121094 36.648438 -53.886719 36.519531 -54.652344 C 36.390625 -54.90625 36.136719 -55.289062 36.390625 -55.671875 C 36.648438 -55.929688 36.902344 -56.4375 37.15625 -56.824219 L 37.667969 -58.992188 L 39.074219 -60.78125 L 38.816406 -61.164062 C 39.074219 -61.292969 39.96875 -62.3125 39.328125 -63.078125 L 40.605469 -69.464844 C 40.222656 -70.484375 41.117188 -70.359375 41.117188 -71.378906 Z M 35.242188 -68.316406 C 34.859375 -65.886719 34.347656 -63.71875 33.453125 -61.546875 C 32.816406 -59.25 31.796875 -57.078125 31.027344 -55.289062 C 29.753906 -52.609375 28.601562 -50.4375 27.453125 -47.882812 C 26.433594 -46.222656 25.664062 -44.691406 24.644531 -43.160156 C 23.878906 -42.011719 22.984375 -40.734375 21.960938 -39.710938 C 20.558594 -37.667969 18.769531 -35.371094 17.238281 -33.453125 C 16.089844 -32.179688 14.558594 -30.007812 13.535156 -28.859375 L 14.300781 -32.433594 C 14.558594 -33.199219 14.941406 -33.582031 15.066406 -33.964844 C 15.960938 -35.753906 16.472656 -37.667969 17.109375 -39.585938 C 17.875 -40.859375 18.386719 -42.648438 18.898438 -43.796875 C 19.152344 -44.4375 19.027344 -44.945312 19.28125 -45.714844 C 19.28125 -46.351562 19.664062 -47.117188 20.046875 -48.011719 C 20.429688 -48.90625 20.6875 -49.925781 21.324219 -51.078125 C 21.578125 -51.460938 21.835938 -52.097656 22.089844 -52.609375 C 22.601562 -54.011719 23.238281 -55.671875 23.878906 -56.949219 C 24.390625 -58.226562 25.28125 -59.503906 25.921875 -60.78125 C 26.816406 -62.183594 28.09375 -63.589844 28.601562 -65.25 C 29.242188 -66.910156 30.390625 -68.316406 31.539062 -69.71875 C 32.304688 -71.125 33.582031 -72.273438 34.730469 -73.421875 C 34.988281 -73.675781 35.113281 -73.933594 35.242188 -74.1875 L 36.136719 -74.953125 C 36.390625 -74.828125 36.519531 -74.828125 36.648438 -74.828125 C 36.136719 -72.65625 36.007812 -70.359375 35.242188 -68.316406 Z M 35.242188 -68.316406 "/></g></g></g><g fill="#2b2b2b" fill-opacity="1"><g transform="translate(162.540901, 77.734072)"><g><path d="M 43.796875 -4.597656 C 43.289062 -4.597656 40.351562 -2.554688 39.328125 -2.425781 L 36.773438 -1.277344 C 34.859375 -0.253906 34.222656 0.128906 32.6875 0.894531 C 30.902344 2.425781 28.730469 3.449219 26.050781 4.980469 C 25.792969 5.363281 25.410156 5.363281 25.15625 4.980469 L 25.410156 4.722656 C 25.664062 3.574219 25.664062 2.679688 25.921875 1.53125 C 25.921875 1.277344 26.558594 0.253906 26.6875 0 C 26.558594 -1.148438 27.324219 -2.425781 26.6875 -3.449219 C 26.433594 -4.085938 26.558594 -4.722656 27.070312 -5.109375 C 27.070312 -5.109375 27.324219 -5.617188 27.324219 -6 C 27.453125 -6.894531 27.324219 -7.917969 27.707031 -8.8125 C 27.582031 -9.578125 28.476562 -11.621094 28.347656 -13.023438 L 28.347656 -13.28125 C 28.476562 -13.664062 28.859375 -15.832031 28.984375 -16.726562 L 29.242188 -18.132812 C 28.21875 -18.132812 28.730469 -18.644531 27.835938 -19.027344 L 27.582031 -19.917969 L 27.582031 -20.175781 C 27.324219 -20.175781 26.816406 -20.429688 26.558594 -20.429688 C 26.050781 -20.429688 25.28125 -20.429688 25.027344 -20.941406 C 24.132812 -21.453125 23.878906 -21.070312 23.113281 -20.175781 C 21.578125 -19.410156 20.429688 -18.132812 18.898438 -16.855469 C 17.75 -16.089844 16.984375 -14.941406 15.707031 -14.171875 C 14.683594 -13.40625 13.917969 -11.875 12.769531 -11.238281 C 12.515625 -10.855469 11.492188 -10.214844 10.855469 -9.832031 C 11.238281 -10.855469 11.363281 -11.363281 11.363281 -12.386719 C 11.875 -13.917969 12.257812 -15.707031 12.515625 -16.601562 C 12.898438 -18.003906 12.515625 -19.152344 12.898438 -19.792969 C 13.152344 -20.304688 12.898438 -20.6875 12.898438 -20.6875 C 12.128906 -21.324219 11.109375 -22.472656 10.46875 -22.855469 C 9.578125 -23.367188 9.578125 -23.238281 8.9375 -23.496094 C 8.042969 -23.496094 7.789062 -23.113281 7.277344 -22.601562 C 7.277344 -22.21875 7.023438 -21.453125 7.40625 -21.070312 C 7.789062 -20.304688 7.789062 -19.535156 7.535156 -18.769531 C 7.023438 -17.621094 6.894531 -16.214844 6.769531 -15.324219 C 6.511719 -13.664062 6.382812 -11.492188 5.875 -9.960938 C 5.875 -8.9375 4.851562 -8.300781 4.980469 -6.894531 C 5.234375 -6.128906 5.746094 -5.109375 6.128906 -4.339844 C 6 -4.085938 8.9375 -2.554688 9.578125 -2.554688 C 10.597656 -2.808594 11.238281 -3.574219 12.257812 -4.339844 C 13.789062 -5.109375 14.683594 -6.511719 16.214844 -7.152344 C 18.261719 -8.9375 19.792969 -10.855469 21.707031 -12.003906 L 22.601562 -11.746094 C 22.472656 -10.980469 22.089844 -10.214844 22.21875 -9.320312 C 22.089844 -7.023438 21.707031 -4.597656 21.070312 -1.789062 C 20.941406 -0.128906 20.6875 1.40625 20.304688 3.320312 C 20.429688 4.597656 19.917969 5.617188 19.664062 6.894531 C 19.664062 8.042969 19.792969 8.9375 18.386719 9.703125 C 17.492188 10.085938 16.214844 11.109375 15.066406 11.746094 C 14.300781 12.640625 13.152344 13.023438 11.746094 14.046875 C 10.34375 15.066406 8.554688 16.34375 6.894531 17.621094 C 3.832031 19.917969 0.894531 22.601562 -2.042969 25.027344 C -4.722656 27.835938 -7.660156 30.644531 -9.960938 33.710938 C -12.386719 36.902344 -14.8125 40.351562 -16.984375 44.054688 C -19.28125 48.011719 -21.070312 52.226562 -22.089844 56.566406 C -22.089844 57.972656 -22.347656 59.632812 -22.730469 61.675781 C -22.601562 62.058594 -22.601562 62.441406 -22.601562 63.460938 C -23.367188 65.761719 -22.984375 68.058594 -21.707031 69.976562 C -21.070312 71.507812 -20.175781 73.039062 -19.664062 74.1875 C -17.367188 77.378906 -15.066406 79.421875 -11.109375 80.191406 C -10.214844 80.574219 -8.9375 80.574219 -8.171875 80.445312 C -6.640625 80.0625 -3.320312 80.316406 -2.042969 79.296875 C -2.171875 79.296875 0.128906 77.636719 1.148438 76.742188 C 2.425781 76.230469 3.449219 75.59375 4.085938 75.335938 L 5.363281 73.292969 L 7.660156 69.847656 L 9.960938 64.484375 L 15.449219 52.992188 L 17.492188 43.925781 C 17.75 42.777344 19.027344 39.710938 19.28125 39.457031 L 19.917969 35.371094 L 20.046875 35.371094 C 20.175781 35.625 20.6875 35.371094 20.429688 34.476562 C 21.324219 33.839844 21.578125 29.625 21.835938 28.601562 C 21.960938 27.835938 23.878906 15.066406 24.132812 15.066406 L 23.878906 15.066406 C 23.878906 14.558594 24.132812 14.300781 24.261719 13.789062 C 24.644531 13.664062 24.515625 12.515625 24.898438 12.257812 C 25.664062 11.492188 25.921875 10.726562 26.175781 9.832031 L 26.941406 9.703125 L 29.625 8.300781 L 35.242188 4.085938 L 37.925781 2.554688 C 38.945312 1.53125 39.839844 1.40625 40.734375 0.765625 C 40.988281 0.765625 41.628906 0 42.011719 -0.253906 C 42.265625 -0.765625 43.414062 -2.042969 44.054688 -3.066406 Z M 18.003906 18.769531 C 17.109375 21.578125 16.601562 24.898438 16.472656 27.453125 C 15.832031 29.753906 15.449219 31.921875 15.066406 34.347656 C 15.195312 34.605469 14.558594 34.859375 14.558594 35.625 L 14.941406 35.625 C 14.300781 37.667969 13.664062 40.222656 13.40625 41.371094 C 12.003906 45.839844 9.960938 50.308594 8.554688 54.78125 C 7.789062 56.3125 7.535156 57.84375 6.894531 59.375 C 5.746094 61.546875 4.597656 63.460938 3.320312 66.015625 C 2.554688 68.441406 0.382812 70.484375 -1.53125 72.402344 C -3.191406 73.933594 -5.363281 75.71875 -7.535156 76.105469 C -9.449219 77.125 -11.621094 77.253906 -13.40625 76.230469 L -13.789062 75.976562 L -14.046875 75.976562 C -14.171875 75.59375 -14.171875 75.335938 -14.171875 75.335938 C -14.941406 74.953125 -15.195312 74.316406 -15.195312 73.675781 C -15.707031 73.292969 -15.832031 72.65625 -15.832031 71.632812 C -16.34375 71.25 -16.472656 70.996094 -16.855469 70.742188 C -16.855469 70.101562 -16.855469 70.101562 -17.367188 70.230469 L -17.367188 69.082031 L -16.855469 68.316406 C -17.367188 66.65625 -17.621094 65.503906 -17.621094 64.101562 C -17.621094 62.570312 -17.75 61.164062 -16.984375 59.375 C -16.34375 58.738281 -16.214844 57.332031 -16.214844 56.824219 C -15.832031 55.929688 -15.707031 54.78125 -15.066406 54.011719 C -14.941406 53.121094 -14.8125 52.097656 -14.171875 51.203125 C -13.28125 50.691406 -13.40625 49.542969 -12.640625 49.160156 C -12.003906 48.265625 -11.746094 47.757812 -11.363281 47.5 C -11.746094 47.5 -11.746094 46.992188 -12.128906 46.992188 L -11.746094 46.734375 C -11.109375 46.992188 -10.46875 45.96875 -10.214844 45.332031 C -9.960938 44.691406 -9.195312 43.414062 -8.9375 42.777344 C -8.171875 40.988281 -6.640625 39.839844 -5.746094 38.308594 C -5.363281 38.308594 -4.980469 38.308594 -4.980469 37.796875 C -4.851562 36.648438 -4.339844 36.648438 -4.085938 35.625 C -3.320312 35.625 -3.066406 35.242188 -3.066406 34.859375 C -2.679688 34.605469 -1.914062 34.09375 -1.660156 33.328125 C -1.789062 32.945312 -1.148438 32.945312 -1.023438 32.433594 L -1.660156 32.433594 L -1.023438 32.050781 C 0.253906 31.796875 1.148438 30.261719 2.171875 29.496094 C 2.042969 29.242188 2.554688 28.859375 2.9375 28.859375 C 3.320312 28.476562 3.449219 27.835938 3.703125 27.835938 C 4.339844 27.453125 4.722656 27.453125 4.851562 27.453125 C 4.722656 27.324219 5.363281 26.6875 5.746094 26.050781 C 6.382812 25.792969 6.640625 25.15625 7.023438 24.644531 C 7.023438 24.261719 7.40625 24.261719 7.40625 24.261719 C 9.195312 23.878906 10.597656 22.601562 11.492188 21.453125 C 12.003906 20.941406 12.769531 20.6875 13.152344 20.175781 C 13.40625 20.175781 13.917969 19.664062 14.558594 19.28125 L 14.558594 18.898438 C 15.578125 18.898438 16.34375 18.003906 16.984375 16.984375 C 16.984375 16.34375 17.621094 16.34375 18.386719 16.089844 C 18.003906 16.855469 18.003906 17.875 18.003906 18.769531 Z M 18.003906 18.769531 "/></g></g></g><g fill="#2b2b2b" fill-opacity="1"><g transform="translate(191.776744, 77.734072)"><g/></g></g><g fill="#2b2b2b" fill-opacity="1"><g transform="translate(204.413895, 77.734072)"><g><path d="M 69.082031 -53.246094 C 68.570312 -54.394531 67.675781 -55.671875 66.65625 -56.4375 C 63.589844 -58.738281 58.097656 -59.121094 54.140625 -58.738281 C 48.777344 -58.226562 44.945312 -56.695312 37.542969 -53.246094 C 34.605469 -51.84375 32.179688 -50.054688 29.496094 -48.011719 C 27.453125 -46.480469 25.664062 -44.691406 24.390625 -42.519531 C 21.835938 -38.691406 21.453125 -34.347656 23.496094 -29.753906 C 25.28125 -25.539062 30.007812 -22.089844 32.304688 -20.6875 C 34.859375 -19.027344 37.414062 -17.238281 40.222656 -15.832031 C 44.308594 -13.917969 48.265625 -11.492188 51.585938 -8.425781 C 53.503906 -6.640625 55.289062 -4.851562 56.3125 -2.425781 C 57.589844 0.253906 57.078125 2.679688 55.671875 4.851562 C 54.523438 6.640625 52.863281 8.425781 51.078125 9.578125 C 46.605469 12.515625 39.96875 15.832031 33.070312 16.855469 C 30.136719 17.367188 27.199219 17.492188 24.261719 17.367188 C 21.835938 17.238281 19.28125 16.472656 16.726562 14.941406 C 13.152344 12.769531 11.746094 7.023438 12.003906 3.191406 C 12.386719 -1.789062 15.578125 -4.339844 19.792969 -5.617188 C 21.960938 -6.382812 18.132812 -10.214844 15.066406 -8.683594 C 14.429688 -8.425781 6.257812 -0.253906 6.382812 2.808594 C 6.769531 11.621094 12.769531 18.132812 22.089844 19.792969 C 27.582031 20.6875 33.070312 20.8125 38.5625 19.917969 C 46.734375 18.644531 56.4375 14.429688 60.269531 9.066406 C 61.929688 6.640625 62.570312 3.957031 61.417969 0.765625 C 59.886719 -2.9375 57.714844 -6.128906 54.652344 -8.8125 C 50.691406 -12.257812 46.351562 -15.066406 41.628906 -17.492188 C 40.734375 -18.003906 39.839844 -18.386719 38.945312 -19.027344 C 36.773438 -20.304688 34.347656 -21.578125 32.179688 -23.113281 C 27.964844 -26.433594 25.027344 -31.796875 28.21875 -37.667969 C 31.539062 -43.414062 37.414062 -46.097656 39.328125 -47.757812 L 42.394531 -50.054688 C 42.648438 -50.949219 43.03125 -51.332031 43.671875 -51.332031 C 44.179688 -51.332031 45.074219 -51.585938 45.457031 -51.84375 C 45.96875 -52.097656 46.222656 -52.351562 46.734375 -52.738281 C 47.246094 -53.628906 53.628906 -54.78125 54.78125 -55.035156 C 54.78125 -55.035156 56.4375 -54.78125 57.207031 -55.289062 L 59.503906 -55.035156 C 60.910156 -54.90625 63.207031 -53.628906 64.101562 -51.84375 C 65.121094 -49.800781 65.121094 -47.882812 64.867188 -45.839844 C 64.355469 -42.136719 63.207031 -40.734375 60.78125 -38.433594 C 59.121094 -36.773438 57.460938 -36.265625 57.84375 -35.242188 C 59.757812 -32.050781 61.929688 -32.816406 64.613281 -34.859375 C 69.976562 -39.328125 71.761719 -47.117188 69.082031 -53.246094 Z M 69.082031 -53.246094 "/></g></g></g><g fill="#2b2b2b" fill-opacity="1"><g transform="translate(264.54882, 77.734072)"><g><path d="M 6.894531 6.769531 C 7.535156 6.769531 8.300781 6.257812 8.9375 6 C 9.960938 5.746094 10.726562 4.851562 11.492188 4.085938 C 12.257812 3.449219 12.769531 2.679688 13.152344 2.042969 C 13.40625 1.789062 13.917969 1.277344 14.046875 1.023438 C 14.683594 0.128906 15.449219 -0.511719 16.089844 -1.40625 C 16.984375 -2.425781 17.875 -3.449219 18.644531 -4.597656 C 18.769531 -2.296875 18.386719 0 19.410156 2.042969 C 20.046875 3.066406 20.175781 4.085938 21.578125 4.085938 C 21.707031 4.085938 21.707031 4.214844 21.960938 4.339844 C 22.730469 5.109375 24.898438 5.492188 25.921875 4.722656 C 26.816406 4.214844 27.582031 3.449219 28.347656 3.066406 C 29.625 2.296875 30.390625 1.277344 31.285156 0.128906 C 32.5625 -1.277344 33.582031 -2.808594 34.730469 -4.46875 C 34.730469 -4.597656 34.730469 -4.722656 34.859375 -4.722656 C 35.625 -4.980469 36.007812 -5.746094 36.136719 -6.511719 L 37.15625 -7.660156 C 38.816406 -11.238281 39.710938 -14.558594 39.839844 -17.621094 C 39.96875 -18.898438 39.457031 -20.6875 39.457031 -21.960938 C 39.457031 -22.984375 38.945312 -24.007812 38.308594 -24.898438 C 37.796875 -25.410156 37.414062 -25.664062 36.773438 -25.664062 L 36.519531 -25.28125 C 36.773438 -25.027344 36.773438 -24.644531 36.902344 -24.007812 C 37.03125 -22.472656 36.902344 -20.8125 36.390625 -19.410156 C 36.007812 -18.386719 36.007812 -17.367188 35.625 -16.214844 C 34.605469 -14.558594 33.964844 -12.515625 32.945312 -10.855469 C 31.921875 -9.449219 30.773438 -7.789062 29.878906 -6.382812 C 28.859375 -5.234375 27.835938 -4.214844 26.558594 -3.066406 C 25.664062 -2.171875 24.773438 -1.277344 23.621094 -0.253906 C 23.75 -1.148438 23.621094 -1.789062 23.621094 -2.554688 C 23.75 -3.449219 23.75 -4.214844 23.75 -4.980469 L 24.515625 -8.425781 C 24.644531 -9.320312 24.773438 -10.085938 25.664062 -10.855469 C 25.664062 -10.855469 25.664062 -11.109375 25.539062 -11.238281 C 25.410156 -11.492188 25.28125 -12.003906 25.027344 -12.386719 C 24.773438 -12.386719 24.261719 -12.386719 23.75 -12.386719 L 23.75 -12.515625 C 23.621094 -13.28125 22.730469 -13.28125 21.578125 -13.40625 C 21.578125 -13.40625 21.453125 -13.40625 21.453125 -13.535156 C 20.8125 -14.046875 20.558594 -14.046875 20.175781 -13.28125 C 19.917969 -13.152344 19.792969 -12.898438 19.535156 -12.769531 C 17.75 -10.597656 16.214844 -8.554688 14.429688 -6.640625 C 12.769531 -4.722656 11.238281 -3.191406 9.578125 -1.40625 L 8.042969 0.128906 C 7.789062 0.128906 7.660156 0.128906 7.660156 0 C 7.789062 -1.789062 8.042969 -3.957031 8.683594 -6 C 8.683594 -6.382812 8.9375 -6.894531 9.066406 -7.277344 C 9.066406 -7.660156 9.195312 -8.171875 9.320312 -8.554688 C 9.703125 -9.578125 9.960938 -10.597656 10.34375 -11.363281 C 10.597656 -12.257812 10.855469 -13.023438 11.109375 -13.789062 L 11.875 -16.089844 C 11.875 -16.984375 11.746094 -17.875 10.855469 -18.386719 C 10.34375 -18.898438 9.578125 -18.515625 9.066406 -18.644531 C 8.9375 -18.644531 8.683594 -18.769531 8.554688 -18.898438 C 8.554688 -18.898438 8.171875 -19.152344 7.789062 -19.152344 C 7.023438 -19.410156 6.894531 -19.28125 6.769531 -18.515625 C 6.511719 -17.75 6.382812 -16.726562 6.257812 -15.707031 C 5.746094 -14.300781 5.363281 -12.898438 4.980469 -11.363281 C 4.339844 -9.578125 3.703125 -7.789062 3.449219 -6 C 2.9375 -3.703125 2.425781 -1.40625 2.554688 0.894531 C 2.554688 2.679688 3.066406 4.46875 4.597656 5.746094 C 4.722656 5.617188 4.851562 5.492188 5.234375 5.363281 C 5.363281 5.617188 5.363281 5.746094 5.492188 5.875 C 6 6.128906 6.382812 6.640625 6.894531 6.769531 Z M 6.894531 6.769531 "/></g></g></g><g fill="#2b2b2b" fill-opacity="1"><g transform="translate(296.210594, 77.734072)"><g><path d="M 33.582031 -12.515625 C 33.964844 -12.769531 34.222656 -13.152344 34.605469 -13.40625 C 34.605469 -13.535156 34.476562 -13.535156 34.476562 -13.535156 L 34.222656 -14.429688 L 29.878906 -11.238281 C 29.625 -10.980469 28.859375 -10.597656 28.347656 -10.34375 C 27.070312 -9.578125 24.644531 -8.171875 23.496094 -7.40625 L 23.113281 -7.152344 L 18.898438 -4.722656 C 18.261719 -4.339844 17.621094 -4.339844 16.984375 -4.085938 C 15.960938 -3.703125 14.941406 -3.191406 14.046875 -2.808594 C 12.898438 -2.425781 11.746094 -1.914062 10.597656 -1.789062 C 8.9375 -1.53125 7.277344 -1.660156 5.617188 -1.53125 C 4.597656 -1.914062 4.339844 -2.171875 3.832031 -3.703125 C 4.722656 -4.214844 5.109375 -4.339844 6.128906 -4.851562 C 6.382812 -5.109375 6.640625 -5.492188 7.023438 -5.617188 C 7.789062 -6.128906 8.8125 -6.511719 9.703125 -7.023438 C 9.832031 -7.152344 9.832031 -7.535156 9.960938 -7.660156 L 11.746094 -8.9375 C 12.257812 -9.195312 13.152344 -9.320312 13.28125 -10.214844 C 13.40625 -10.597656 14.171875 -10.726562 14.558594 -11.109375 C 15.707031 -12.257812 16.855469 -13.40625 18.003906 -14.683594 C 18.386719 -15.066406 18.769531 -15.707031 19.027344 -16.34375 C 19.410156 -17.367188 18.769531 -19.535156 17.75 -20.175781 C 16.855469 -20.941406 15.832031 -21.707031 14.683594 -22.21875 C 13.789062 -22.730469 12.640625 -23.621094 11.363281 -23.113281 C 10.855469 -22.984375 10.46875 -22.855469 10.085938 -22.855469 C 8.425781 -22.730469 7.023438 -21.960938 5.875 -20.8125 C 4.722656 -19.535156 3.574219 -18.261719 2.425781 -16.855469 C 1.789062 -16.089844 1.277344 -15.324219 0.765625 -14.558594 C -0.511719 -12.128906 -1.148438 -9.703125 -1.277344 -7.152344 C -1.277344 -6.257812 -1.40625 -5.363281 -0.765625 -3.832031 C -0.511719 -2.554688 -0.511719 -2.554688 -0.253906 -2.296875 C 0.511719 -1.148438 1.023438 -0.382812 1.914062 0.253906 C 2.042969 0.382812 2.425781 0.511719 2.554688 0.765625 C 3.832031 1.789062 4.339844 1.914062 5.492188 2.296875 C 6.640625 2.679688 8.042969 2.9375 9.320312 3.066406 C 10.34375 3.191406 11.238281 2.9375 12.257812 2.679688 C 12.898438 2.554688 13.664062 2.425781 14.171875 2.171875 C 14.558594 1.914062 14.8125 1.789062 15.324219 1.789062 C 16.214844 1.660156 17.109375 1.660156 17.875 1.277344 C 19.152344 0.765625 20.175781 -0.128906 21.324219 -0.765625 C 22.21875 -1.40625 22.984375 -1.914062 24.007812 -2.425781 L 26.433594 -4.339844 C 26.941406 -4.722656 27.582031 -5.234375 28.09375 -5.746094 C 28.21875 -5.875 28.730469 -6.382812 28.859375 -6.769531 L 28.859375 -6.894531 C 28.984375 -7.789062 29.496094 -8.042969 30.007812 -8.425781 C 29.625 -8.8125 29.878906 -9.066406 30.390625 -9.320312 L 30.773438 -9.832031 C 31.410156 -10.214844 31.410156 -10.597656 31.667969 -10.855469 Z M 4.597656 -11.492188 C 5.363281 -13.023438 6.257812 -14.558594 7.277344 -15.960938 C 8.171875 -17.109375 9.320312 -17.75 10.46875 -18.644531 C 11.492188 -19.410156 12.640625 -19.410156 13.789062 -19.917969 C 14.300781 -20.175781 14.941406 -19.027344 14.558594 -18.386719 C 14.046875 -17.492188 13.535156 -16.726562 12.769531 -16.089844 L 9.320312 -13.023438 L 5.875 -10.214844 C 5.363281 -9.832031 4.722656 -9.449219 3.703125 -8.8125 C 3.957031 -9.832031 4.214844 -10.726562 4.597656 -11.492188 Z M 4.597656 -11.492188 "/></g></g></g><g fill="#2b2b2b" fill-opacity="1"><g transform="translate(316.76402, 77.734072)"><g><path d="M 33.582031 -12.515625 C 33.964844 -12.769531 34.222656 -13.152344 34.605469 -13.40625 C 34.605469 -13.535156 34.476562 -13.535156 34.476562 -13.535156 L 34.222656 -14.429688 L 29.878906 -11.238281 C 29.625 -10.980469 28.859375 -10.597656 28.347656 -10.34375 C 27.070312 -9.578125 24.644531 -8.171875 23.496094 -7.40625 L 23.113281 -7.152344 L 18.898438 -4.722656 C 18.261719 -4.339844 17.621094 -4.339844 16.984375 -4.085938 C 15.960938 -3.703125 14.941406 -3.191406 14.046875 -2.808594 C 12.898438 -2.425781 11.746094 -1.914062 10.597656 -1.789062 C 8.9375 -1.53125 7.277344 -1.660156 5.617188 -1.53125 C 4.597656 -1.914062 4.339844 -2.171875 3.832031 -3.703125 C 4.722656 -4.214844 5.109375 -4.339844 6.128906 -4.851562 C 6.382812 -5.109375 6.640625 -5.492188 7.023438 -5.617188 C 7.789062 -6.128906 8.8125 -6.511719 9.703125 -7.023438 C 9.832031 -7.152344 9.832031 -7.535156 9.960938 -7.660156 L 11.746094 -8.9375 C 12.257812 -9.195312 13.152344 -9.320312 13.28125 -10.214844 C 13.40625 -10.597656 14.171875 -10.726562 14.558594 -11.109375 C 15.707031 -12.257812 16.855469 -13.40625 18.003906 -14.683594 C 18.386719 -15.066406 18.769531 -15.707031 19.027344 -16.34375 C 19.410156 -17.367188 18.769531 -19.535156 17.75 -20.175781 C 16.855469 -20.941406 15.832031 -21.707031 14.683594 -22.21875 C 13.789062 -22.730469 12.640625 -23.621094 11.363281 -23.113281 C 10.855469 -22.984375 10.46875 -22.855469 10.085938 -22.855469 C 8.425781 -22.730469 7.023438 -21.960938 5.875 -20.8125 C 4.722656 -19.535156 3.574219 -18.261719 2.425781 -16.855469 C 1.789062 -16.089844 1.277344 -15.324219 0.765625 -14.558594 C -0.511719 -12.128906 -1.148438 -9.703125 -1.277344 -7.152344 C -1.277344 -6.257812 -1.40625 -5.363281 -0.765625 -3.832031 C -0.511719 -2.554688 -0.511719 -2.554688 -0.253906 -2.296875 C 0.511719 -1.148438 1.023438 -0.382812 1.914062 0.253906 C 2.042969 0.382812 2.425781 0.511719 2.554688 0.765625 C 3.832031 1.789062 4.339844 1.914062 5.492188 2.296875 C 6.640625 2.679688 8.042969 2.9375 9.320312 3.066406 C 10.34375 3.191406 11.238281 2.9375 12.257812 2.679688 C 12.898438 2.554688 13.664062 2.425781 14.171875 2.171875 C 14.558594 1.914062 14.8125 1.789062 15.324219 1.789062 C 16.214844 1.660156 17.109375 1.660156 17.875 1.277344 C 19.152344 0.765625 20.175781 -0.128906 21.324219 -0.765625 C 22.21875 -1.40625 22.984375 -1.914062 24.007812 -2.425781 L 26.433594 -4.339844 C 26.941406 -4.722656 27.582031 -5.234375 28.09375 -5.746094 C 28.21875 -5.875 28.730469 -6.382812 28.859375 -6.769531 L 28.859375 -6.894531 C 28.984375 -7.789062 29.496094 -8.042969 30.007812 -8.425781 C 29.625 -8.8125 29.878906 -9.066406 30.390625 -9.320312 L 30.773438 -9.832031 C 31.410156 -10.214844 31.410156 -10.597656 31.667969 -10.855469 Z M 4.597656 -11.492188 C 5.363281 -13.023438 6.257812 -14.558594 7.277344 -15.960938 C 8.171875 -17.109375 9.320312 -17.75 10.46875 -18.644531 C 11.492188 -19.410156 12.640625 -19.410156 13.789062 -19.917969 C 14.300781 -20.175781 14.941406 -19.027344 14.558594 -18.386719 C 14.046875 -17.492188 13.535156 -16.726562 12.769531 -16.089844 L 9.320312 -13.023438 L 5.875 -10.214844 C 5.363281 -9.832031 4.722656 -9.449219 3.703125 -8.8125 C 3.957031 -9.832031 4.214844 -10.726562 4.597656 -11.492188 Z M 4.597656 -11.492188 "/></g></g></g><g fill="#2b2b2b" fill-opacity="1"><g transform="translate(337.317447, 77.734072)"><g><path d="M 26.816406 -42.136719 C 27.582031 -42.265625 29.242188 -42.519531 29.753906 -42.136719 C 30.644531 -42.519531 31.921875 -42.519531 32.6875 -42.519531 L 32.945312 -42.648438 C 33.453125 -43.414062 35.371094 -43.542969 34.988281 -44.820312 C 34.605469 -45.074219 33.964844 -44.5625 33.710938 -44.4375 C 31.027344 -43.925781 30.261719 -44.054688 24.132812 -44.308594 C 23.621094 -44.179688 22.601562 -44.5625 20.8125 -44.691406 C 21.070312 -46.097656 21.453125 -46.734375 22.347656 -49.289062 C 22.984375 -50.949219 24.007812 -52.609375 24.390625 -54.140625 C 25.664062 -56.3125 26.6875 -58.609375 27.707031 -61.035156 C 28.09375 -61.929688 28.476562 -62.570312 27.453125 -63.207031 C 27.199219 -63.589844 26.6875 -63.84375 26.558594 -64.230469 C 26.433594 -65.25 25.28125 -65.503906 24.261719 -66.144531 C 24.007812 -66.273438 23.75 -66.273438 23.621094 -66.527344 C 23.113281 -66.65625 22.730469 -66.527344 22.472656 -65.761719 C 22.21875 -64.867188 21.707031 -63.589844 21.453125 -62.695312 C 21.070312 -62.058594 20.6875 -61.800781 20.6875 -61.292969 C 19.917969 -59.757812 19.664062 -58.355469 19.027344 -56.949219 C 18.644531 -55.417969 17.875 -54.011719 17.492188 -52.738281 C 16.984375 -51.460938 16.472656 -50.308594 16.089844 -49.035156 C 15.324219 -47.757812 15.195312 -46.480469 14.429688 -45.203125 C 13.664062 -45.203125 12.769531 -45.203125 11.621094 -45.074219 L 9.195312 -45.332031 C 8.300781 -45.714844 7.40625 -45.457031 6.640625 -45.074219 C 6.382812 -44.945312 6 -45.074219 5.875 -45.074219 C 5.875 -45.074219 5.363281 -45.203125 4.722656 -44.4375 C 4.085938 -44.179688 3.832031 -43.414062 3.832031 -43.03125 C 3.957031 -41.882812 5.363281 -41.628906 6.894531 -41.246094 C 9.320312 -40.988281 11.109375 -40.859375 12.769531 -40.859375 L 11.492188 -36.902344 L 7.40625 -24.132812 C 7.535156 -24.007812 7.535156 -23.75 7.660156 -23.621094 L 7.40625 -23.621094 C 7.152344 -22.984375 6.769531 -22.601562 6.769531 -22.089844 C 6.257812 -20.429688 6.257812 -19.027344 5.746094 -17.621094 L 4.851562 -14.046875 C 4.597656 -12.515625 4.085938 -10.980469 4.214844 -9.449219 C 3.957031 -6.769531 3.574219 -4.214844 4.085938 -1.660156 C 4.597656 0.894531 5.109375 3.449219 6.511719 5.492188 C 6.769531 5.746094 7.023438 6 7.277344 6.382812 C 8.300781 7.535156 8.8125 8.300781 9.960938 8.683594 C 11.746094 9.832031 12.128906 9.703125 14.046875 9.578125 L 13.789062 9.578125 C 14.558594 9.578125 14.8125 9.449219 15.066406 9.066406 C 15.707031 8.042969 16.855469 7.277344 16.472656 6 C 16.472656 6 14.941406 6.769531 13.917969 6.640625 C 12.769531 6.769531 12.640625 6.640625 11.492188 6 L 10.597656 4.980469 C 10.34375 4.722656 9.832031 4.214844 9.832031 3.320312 C 9.578125 2.425781 9.320312 1.53125 9.449219 0.636719 C 9.449219 0.128906 9.449219 -0.253906 8.9375 -0.382812 C 9.449219 -0.636719 9.066406 -0.765625 8.8125 -1.023438 C 9.449219 -1.148438 9.320312 -3.449219 8.8125 -4.085938 C 9.066406 -4.46875 9.320312 -4.980469 9.449219 -5.363281 C 9.195312 -5.492188 9.066406 -5.617188 9.195312 -5.617188 C 9.320312 -5.746094 9.449219 -6 9.449219 -6.257812 C 9.449219 -7.277344 9.578125 -8.171875 9.960938 -9.320312 C 9.832031 -9.703125 9.960938 -10.34375 10.085938 -10.855469 C 10.085938 -11.238281 10.46875 -11.746094 10.46875 -12.003906 C 10.46875 -12.640625 10.855469 -13.40625 10.46875 -14.046875 C 10.726562 -14.429688 11.109375 -14.8125 11.238281 -15.195312 C 11.363281 -16.601562 11.875 -18.003906 12.257812 -19.410156 C 12.257812 -20.175781 12.640625 -20.941406 13.023438 -21.707031 C 13.152344 -22.855469 13.789062 -24.132812 14.046875 -25.410156 C 14.171875 -25.921875 14.429688 -26.433594 14.683594 -27.070312 C 14.941406 -27.835938 14.8125 -28.601562 15.195312 -29.496094 C 15.195312 -29.753906 15.066406 -30.007812 15.195312 -30.007812 C 15.960938 -30.261719 15.832031 -30.773438 15.707031 -31.027344 C 15.578125 -31.285156 15.832031 -31.539062 15.832031 -31.796875 C 16.34375 -32.304688 16.726562 -33.199219 16.601562 -33.710938 C 16.855469 -34.09375 17.109375 -34.347656 16.984375 -34.605469 C 16.726562 -35.113281 17.238281 -36.136719 17.75 -36.390625 L 19.152344 -40.734375 L 20.558594 -40.734375 C 21.707031 -40.859375 23.621094 -40.734375 25.027344 -40.734375 C 26.6875 -40.859375 27.835938 -40.859375 28.476562 -40.859375 C 29.625 -40.859375 30.773438 -40.988281 31.15625 -41.246094 L 33.070312 -41.5 C 33.328125 -41.628906 33.453125 -41.753906 33.070312 -42.011719 C 30.519531 -41.753906 29.496094 -41.753906 24.515625 -41.628906 L 24.644531 -41.882812 Z M 26.816406 -42.136719 "/></g></g></g></svg>