<svg xmlns="http://www.w3.org/2000/svg" xmlns:xlink="http://www.w3.org/1999/xlink" width="114" zoomAndPan="magnify" viewBox="0 0 85.5 37.5" height="50" preserveAspectRatio="xMidYMid meet" version="1.0"><defs><g/><clipPath id="de2676b54f"><path d="M 77 2 L 84.691406 2 L 84.691406 20 L 77 20 Z M 77 2 " clip-rule="nonzero"/></clipPath></defs><g fill="#2b2b2b" fill-opacity="1"><g transform="translate(2.492091, 17.541338)"><g><path d="M 15.636719 -12.054688 C 15.523438 -12.3125 15.320312 -12.601562 15.089844 -12.777344 C 14.394531 -13.296875 13.152344 -13.382812 12.253906 -13.296875 C 11.042969 -13.179688 10.175781 -12.832031 8.496094 -12.054688 C 7.832031 -11.734375 7.285156 -11.332031 6.675781 -10.867188 C 6.214844 -10.519531 5.808594 -10.117188 5.519531 -9.625 C 4.941406 -8.757812 4.855469 -7.773438 5.320312 -6.734375 C 5.722656 -5.78125 6.792969 -5 7.3125 -4.683594 C 7.890625 -4.308594 8.46875 -3.902344 9.105469 -3.585938 C 10.03125 -3.152344 10.925781 -2.601562 11.675781 -1.90625 C 12.109375 -1.503906 12.515625 -1.097656 12.746094 -0.550781 C 13.035156 0.0585938 12.921875 0.605469 12.601562 1.097656 C 12.34375 1.503906 11.964844 1.90625 11.5625 2.167969 C 10.550781 2.832031 9.046875 3.585938 7.484375 3.816406 C 6.820312 3.929688 6.15625 3.960938 5.492188 3.929688 C 4.941406 3.902344 4.363281 3.730469 3.785156 3.382812 C 2.976562 2.890625 2.660156 1.589844 2.71875 0.722656 C 2.804688 -0.40625 3.527344 -0.984375 4.480469 -1.273438 C 4.972656 -1.445312 4.105469 -2.3125 3.410156 -1.964844 C 3.265625 -1.90625 1.417969 -0.0585938 1.445312 0.636719 C 1.53125 2.628906 2.890625 4.105469 5 4.480469 C 6.242188 4.683594 7.484375 4.710938 8.730469 4.507812 C 10.578125 4.21875 12.777344 3.265625 13.644531 2.050781 C 14.019531 1.503906 14.164062 0.894531 13.902344 0.171875 C 13.554688 -0.664062 13.066406 -1.386719 12.371094 -1.996094 C 11.476562 -2.773438 10.492188 -3.410156 9.421875 -3.960938 C 9.21875 -4.074219 9.019531 -4.164062 8.816406 -4.308594 C 8.324219 -4.597656 7.773438 -4.886719 7.285156 -5.230469 C 6.332031 -5.984375 5.664062 -7.195312 6.386719 -8.527344 C 7.140625 -9.828125 8.46875 -10.433594 8.902344 -10.808594 L 9.597656 -11.332031 C 9.652344 -11.53125 9.742188 -11.621094 9.886719 -11.621094 C 10 -11.621094 10.203125 -11.675781 10.289062 -11.734375 C 10.40625 -11.792969 10.464844 -11.851562 10.578125 -11.9375 C 10.695312 -12.140625 12.140625 -12.398438 12.398438 -12.457031 C 12.398438 -12.457031 12.777344 -12.398438 12.949219 -12.515625 L 13.46875 -12.457031 C 13.789062 -12.429688 14.308594 -12.140625 14.511719 -11.734375 C 14.742188 -11.273438 14.742188 -10.839844 14.683594 -10.375 C 14.566406 -9.539062 14.308594 -9.21875 13.757812 -8.699219 C 13.382812 -8.324219 13.007812 -8.207031 13.09375 -7.976562 C 13.527344 -7.253906 14.019531 -7.429688 14.625 -7.890625 C 15.839844 -8.902344 16.246094 -10.664062 15.636719 -12.054688 Z M 15.636719 -12.054688 "/></g></g></g><g fill="#2b2b2b" fill-opacity="1"><g transform="translate(16.104452, 17.541338)"><g><path d="M 2.398438 -6.332031 C 2.574219 -6.214844 2.746094 -6.214844 2.890625 -6.273438 C 3.152344 -6.445312 3.410156 -6.621094 3.527344 -6.9375 C 3.640625 -7.253906 3.527344 -7.574219 3.441406 -7.863281 C 3.382812 -8.0625 3.207031 -8.152344 2.890625 -8.121094 C 2.890625 -8.121094 2.773438 -8.121094 2.746094 -8.09375 C 2.371094 -7.890625 2.050781 -7.6875 1.90625 -7.253906 C 1.851562 -6.964844 1.90625 -6.734375 2.082031 -6.53125 C 2.167969 -6.445312 2.3125 -6.386719 2.398438 -6.332031 Z M 6.300781 -3.238281 C 6.445312 -3.496094 6.417969 -3.671875 6.359375 -3.730469 C 5.984375 -3.351562 5.609375 -3.035156 5.261719 -2.71875 C 4.828125 -2.3125 4.421875 -1.851562 3.960938 -1.445312 C 3.527344 -1.011719 3.007812 -0.605469 2.542969 -0.203125 C 2.3125 0 2.050781 0.117188 1.734375 0.203125 C 1.761719 -0.0859375 1.851562 -0.347656 1.851562 -0.605469 C 1.878906 -0.894531 2.050781 -1.15625 1.964844 -1.417969 C 1.964844 -1.472656 1.996094 -1.503906 2.023438 -1.5625 C 2.050781 -1.675781 2.109375 -1.792969 2.167969 -1.90625 C 2.285156 -2.285156 2.398438 -2.628906 2.484375 -2.976562 C 2.542969 -3.121094 2.601562 -3.265625 2.601562 -3.441406 C 2.628906 -3.585938 2.628906 -3.757812 2.574219 -3.875 C 2.515625 -3.988281 2.371094 -4.105469 2.253906 -4.191406 C 2.167969 -4.335938 1.964844 -4.421875 1.878906 -4.566406 C 1.792969 -4.710938 1.707031 -4.652344 1.617188 -4.625 C 1.503906 -4.625 1.472656 -4.539062 1.503906 -4.421875 L 1.503906 -4.191406 C 1.359375 -3.640625 1.214844 -3.152344 1.097656 -2.628906 C 0.984375 -2.253906 0.867188 -1.878906 0.808594 -1.503906 C 0.664062 -0.984375 0.550781 -0.433594 0.605469 0.0585938 C 0.636719 0.171875 0.722656 0.230469 0.75 0.347656 C 0.808594 0.40625 0.867188 0.492188 0.894531 0.578125 C 0.925781 0.636719 0.925781 0.722656 0.984375 0.75 C 1.183594 0.894531 1.300781 1.15625 1.589844 1.214844 C 1.792969 1.273438 1.9375 1.359375 2.167969 1.300781 C 2.371094 1.183594 2.574219 1.097656 2.746094 1.011719 C 2.917969 0.953125 3.09375 0.925781 3.207031 0.808594 C 3.382812 0.695312 3.527344 0.578125 3.640625 0.433594 C 3.816406 0.203125 4.019531 -0.0273438 4.25 -0.171875 L 4.394531 -0.316406 C 4.453125 -0.375 4.480469 -0.460938 4.539062 -0.519531 L 4.855469 -0.984375 C 5.261719 -1.5625 5.320312 -1.820312 5.433594 -1.964844 C 5.609375 -2.167969 6.242188 -3.179688 6.273438 -3.207031 Z M 6.300781 -3.238281 "/></g></g></g><g fill="#2b2b2b" fill-opacity="1"><g transform="translate(19.31187, 17.541338)"><g><path d="M 9.335938 2.890625 C 9.507812 2.6875 9.507812 2.628906 9.507812 2.542969 C 9.566406 2.484375 9.625 2.457031 9.625 2.398438 C 9.683594 2.285156 9.566406 2.082031 9.507812 2.140625 C 9.105469 2.285156 8.875 2.140625 8.699219 1.792969 C 8.554688 1.242188 8.554688 1.128906 8.496094 0.953125 C 8.441406 0.722656 8.441406 0.460938 8.410156 0.203125 C 8.441406 0.0273438 8.324219 -0.171875 8.441406 -0.347656 L 8.441406 -0.492188 C 8.441406 -0.636719 8.441406 -0.78125 8.410156 -0.867188 C 8.441406 -1.070312 8.441406 -1.359375 8.179688 -1.359375 L 8.007812 -1.617188 C 7.71875 -1.734375 7.601562 -1.878906 7.3125 -1.964844 C 7.253906 -2.023438 7.109375 -1.996094 7.023438 -1.964844 C 6.792969 -1.761719 6.675781 -1.707031 6.5625 -1.617188 C 6.359375 -1.503906 6.15625 -1.359375 5.984375 -1.214844 C 5.664062 -0.953125 5.203125 -0.492188 4.828125 -0.171875 C 4.886719 -0.492188 4.941406 -1.128906 5.03125 -1.359375 C 5.144531 -1.589844 5.085938 -1.851562 5.117188 -2.109375 C 5.144531 -2.195312 5.117188 -2.3125 5.085938 -2.371094 C 5.03125 -2.601562 5.085938 -2.832031 5 -3.035156 C 4.886719 -3.035156 4.796875 -3.09375 4.683594 -3.035156 C 4.394531 -2.949219 4.132812 -3.0625 3.960938 -3.265625 C 3.84375 -3.351562 3.757812 -3.382812 3.640625 -3.296875 C 3.410156 -3.121094 3.238281 -2.890625 3.035156 -2.6875 C 2.71875 -2.371094 2.515625 -1.9375 2.253906 -1.617188 C 1.878906 -0.984375 1.734375 -0.78125 1.648438 -0.605469 C 1.617188 -0.578125 1.5625 -0.550781 1.472656 -0.519531 C 1.53125 -0.839844 1.878906 -1.734375 1.90625 -1.964844 C 2.023438 -2.371094 2.082031 -2.746094 2.140625 -3.121094 C 2.226562 -3.410156 2.253906 -3.730469 2.195312 -4.019531 C 2.140625 -4.277344 1.996094 -4.335938 1.792969 -4.394531 C 1.617188 -4.453125 1.53125 -4.453125 1.300781 -4.480469 C 1.300781 -4.421875 1.183594 -4.308594 1.214844 -4.25 C 1.273438 -4.132812 1.214844 -3.988281 1.214844 -3.84375 C 1.070312 -3.296875 0.984375 -2.71875 0.839844 -2.167969 C 0.578125 -1.214844 0.375 -0.261719 0.289062 0.722656 C 0.261719 1.039062 0.316406 1.328125 0.492188 1.5625 L 0.867188 1.792969 L 1.097656 1.617188 C 1.128906 1.53125 1.183594 1.472656 1.242188 1.445312 C 1.359375 1.328125 1.53125 1.273438 1.617188 1.128906 C 1.878906 0.722656 2.109375 0.316406 2.398438 -0.0859375 L 2.574219 -0.460938 L 3.007812 -1.011719 C 3.152344 -1.214844 3.46875 -1.589844 3.816406 -2.023438 C 3.875 -1.9375 3.902344 -1.878906 3.875 -1.851562 C 3.816406 -1.417969 3.671875 -0.578125 3.613281 -0.171875 L 3.785156 0.460938 C 3.785156 0.519531 3.902344 0.578125 3.929688 0.636719 C 3.960938 0.722656 4.046875 0.722656 4.046875 0.78125 C 4.074219 0.894531 4.132812 0.953125 4.25 0.925781 L 4.566406 1.070312 C 4.710938 1.097656 4.796875 1.128906 4.886719 1.128906 L 5.085938 0.953125 C 5.320312 0.78125 5.609375 0.695312 5.808594 0.433594 C 6.128906 0.0585938 6.53125 -0.230469 6.90625 -0.605469 C 6.9375 -0.636719 6.996094 -0.636719 6.996094 -0.695312 C 7.167969 -0.839844 7.253906 -0.867188 7.339844 -0.839844 L 7.371094 -0.203125 C 7.339844 0.0859375 7.429688 0.492188 7.429688 0.867188 C 7.457031 1.273438 7.628906 1.648438 7.6875 1.90625 C 7.832031 2.253906 8.035156 2.574219 8.296875 2.71875 C 8.554688 2.949219 9.21875 2.949219 9.335938 2.890625 Z M 9.335938 2.890625 "/></g></g></g><g fill="#2b2b2b" fill-opacity="1"><g transform="translate(27.28823, 17.541338)"><g><path d="M -1.761719 12.804688 C -1.648438 12.777344 -1.53125 12.746094 -1.472656 12.71875 C -1.472656 12.574219 -1.445312 12.488281 -1.417969 12.371094 C -1.417969 12.371094 -1.359375 12.371094 -1.359375 12.398438 C -1.328125 12.371094 -1.300781 12.34375 -1.300781 12.3125 C -1.242188 12.167969 -1.214844 11.9375 -1.183594 11.792969 C -1.15625 11.707031 -1.097656 11.53125 -1.128906 11.445312 C -1.183594 11.242188 -1.097656 10.984375 -1.097656 10.808594 C -1.070312 10.519531 -0.953125 10.203125 -0.925781 9.972656 C -0.925781 9.886719 -0.953125 9.828125 -0.953125 9.828125 C -0.894531 9.625 -0.839844 9.480469 -0.78125 9.277344 L -0.894531 9.21875 C -0.664062 9.046875 -0.636719 8.671875 -0.722656 8.585938 C -0.664062 8.46875 -0.636719 8.441406 -0.636719 8.351562 C -0.605469 8.179688 -0.605469 8.0625 -0.550781 7.832031 C -0.550781 7.804688 -0.492188 7.746094 -0.492188 7.6875 C -0.460938 7.285156 -0.433594 6.90625 -0.117188 6.300781 L -0.117188 5.839844 L 0.0273438 5.40625 C 0 5.375 0 5.320312 0 5.289062 C 0.0585938 5.117188 0.0859375 4.941406 0.144531 4.710938 C 0.230469 4.539062 0.316406 4.25 0.375 3.960938 C 0.40625 3.816406 0.375 3.671875 0.40625 3.496094 C 0.375 3.496094 0.375 3.496094 0.316406 3.46875 C 0.375 3.46875 0.40625 3.441406 0.433594 3.441406 C 0.40625 3.410156 0.375 3.410156 0.316406 3.382812 C 0.519531 3.296875 0.695312 2.832031 0.605469 2.429688 C 0.808594 2.398438 0.722656 2.253906 0.75 2.167969 C 0.808594 2.023438 0.867188 1.90625 0.75 1.851562 C 0.78125 1.820312 0.867188 1.820312 0.867188 1.792969 C 0.925781 1.617188 0.953125 1.472656 1.011719 1.273438 C 1.011719 1.273438 0.984375 1.273438 0.953125 1.242188 L 0.925781 1.242188 C 1.214844 1.242188 1.183594 0.953125 1.328125 0.78125 C 1.273438 0.808594 1.445312 0.375 1.53125 0.261719 C 1.53125 0.230469 1.53125 0.171875 1.472656 0.144531 L 1.648438 0.144531 C 1.734375 -0.0859375 2.050781 -0.75 2.195312 -0.894531 C 2.484375 -1.183594 2.773438 -1.53125 3.007812 -1.90625 C 3.179688 -2.226562 3.46875 -2.371094 3.730469 -2.601562 C 3.902344 -2.71875 4.046875 -2.804688 4.191406 -2.976562 C 4.308594 -3.035156 4.394531 -3.152344 4.480469 -3.238281 L 4.539062 -3.238281 C 4.710938 -3.382812 4.886719 -3.441406 5.144531 -3.554688 C 5.289062 -3.671875 5.636719 -3.699219 5.753906 -3.554688 C 5.808594 -3.410156 5.898438 -3.207031 5.898438 -3.035156 C 5.953125 -2.773438 5.839844 -2.574219 5.753906 -2.3125 C 5.753906 -2.253906 5.664062 -2.167969 5.636719 -2.050781 L 5.636719 -1.9375 C 5.464844 -1.648438 5.320312 -1.445312 5.144531 -1.214844 C 5 -0.953125 4.742188 -0.75 4.539062 -0.550781 C 4.394531 -0.375 4.21875 -0.171875 3.929688 -0.117188 C 3.816406 -0.0859375 3.640625 -0.144531 3.640625 -0.375 C 3.613281 -0.492188 3.613281 -0.636719 3.441406 -0.636719 C 3.441406 -0.492188 3.324219 -0.40625 3.382812 -0.316406 C 3.410156 -0.0273438 3.496094 0.230469 3.730469 0.347656 L 3.785156 0.375 C 3.816406 0.550781 3.902344 0.578125 4.019531 0.636719 C 4.191406 0.695312 4.363281 0.78125 4.507812 0.808594 C 4.539062 0.839844 4.625 0.808594 4.683594 0.808594 C 4.914062 0.695312 5.085938 0.636719 5.320312 0.492188 L 5.925781 -0.0273438 C 6.097656 -0.316406 6.332031 -0.550781 6.53125 -0.808594 C 6.648438 -1.097656 6.90625 -1.445312 6.964844 -1.761719 C 7.109375 -2.050781 7.023438 -2.457031 7.023438 -2.773438 C 7.023438 -2.890625 6.996094 -3.007812 6.996094 -3.152344 C 7.023438 -3.207031 7.023438 -3.238281 6.964844 -3.238281 C 6.90625 -3.554688 6.15625 -4.019531 6.128906 -4.019531 C 5.925781 -4.074219 5.839844 -4.132812 5.695312 -4.164062 C 5.519531 -4.191406 5.261719 -4.277344 5.058594 -4.277344 C 4.769531 -4.277344 4.480469 -4.25 4.132812 -4.074219 L 3.671875 -3.730469 L 3.152344 -3.441406 C 3.09375 -3.410156 3.09375 -3.382812 3.0625 -3.265625 C 3.0625 -3.238281 2.976562 -3.179688 2.949219 -3.152344 C 2.253906 -2.226562 1.964844 -1.5625 1.996094 -1.5625 C 1.734375 -1.15625 1.675781 -1.183594 1.589844 -1.039062 C 1.617188 -1.242188 1.675781 -1.417969 1.734375 -1.53125 L 1.734375 -1.589844 C 1.792969 -2.253906 1.878906 -2.371094 1.90625 -2.660156 L 1.964844 -2.660156 C 2.023438 -2.976562 2.109375 -3.179688 2.167969 -3.441406 C 2.195312 -3.46875 2.195312 -3.527344 2.226562 -3.554688 C 2.140625 -3.671875 2.140625 -3.730469 2.253906 -3.785156 C 2.285156 -3.875 2.3125 -3.988281 2.3125 -4.046875 C 2.371094 -4.164062 2.371094 -4.25 2.339844 -4.335938 L 2.253906 -4.710938 C 2.167969 -4.886719 2.050781 -5.058594 1.792969 -5.03125 L 1.707031 -5.03125 C 1.53125 -5.058594 1.472656 -5 1.445312 -4.796875 C 1.300781 -4.539062 1.242188 -4.308594 1.15625 -4.074219 C 1.070312 -3.699219 0.953125 -3.324219 0.839844 -2.949219 C 0.78125 -2.628906 0.695312 -2.339844 0.664062 -2.050781 C 0.519531 -1.53125 0.460938 -1.039062 0.347656 -0.550781 C 0.316406 -0.289062 0.203125 0 0.144531 0.289062 C 0.0273438 0.75 -0.0859375 1.15625 -0.171875 1.589844 C -0.289062 2.195312 -0.433594 2.832031 -0.636719 3.441406 C -0.636719 3.554688 -0.664062 3.671875 -0.695312 3.816406 C -0.75 4.164062 -1.097656 5.609375 -1.328125 6.273438 C -1.359375 6.300781 -1.445312 6.417969 -1.386719 6.476562 C -1.328125 6.589844 -1.359375 6.734375 -1.445312 6.851562 C -1.503906 6.9375 -1.53125 7.023438 -1.5625 7.140625 C -1.503906 7.140625 -1.472656 7.140625 -1.386719 7.167969 C -1.5625 7.253906 -1.617188 7.542969 -1.503906 7.804688 C -1.5625 7.804688 -1.589844 7.773438 -1.617188 7.773438 C -1.9375 9.21875 -2.167969 10.664062 -2.601562 12.140625 L -2.339844 12.457031 L -2.140625 12.488281 C -1.996094 12.632812 -1.878906 12.746094 -1.761719 12.804688 Z M -1.761719 12.804688 "/></g></g></g><g fill="#2b2b2b" fill-opacity="1"><g transform="translate(32.60554, 17.541338)"><g><path d="M 9.335938 -16.621094 C 9.277344 -16.765625 9.277344 -16.910156 9.25 -17.140625 C 9.277344 -17.167969 9.277344 -17.226562 9.25 -17.257812 L 9.074219 -17.402344 C 8.960938 -17.515625 8.816406 -17.632812 8.671875 -17.691406 C 8.585938 -17.746094 8.441406 -17.804688 8.324219 -17.863281 C 7.917969 -17.980469 7.574219 -18.066406 7.253906 -17.746094 C 7.023438 -17.515625 6.761719 -17.257812 6.503906 -17.023438 C 6.242188 -16.765625 5.984375 -16.390625 5.78125 -16.011719 L 4.652344 -13.933594 C 4.625 -13.875 4.566406 -13.875 4.539062 -13.816406 L 4.308594 -13.324219 L 4.105469 -12.660156 C 4.074219 -12.542969 3.84375 -12.167969 3.785156 -12.140625 C 3.785156 -12.082031 3.09375 -10.320312 3.0625 -10.261719 C 2.949219 -10.085938 2.949219 -9.914062 2.890625 -9.742188 C 2.773438 -9.507812 2.6875 -9.25 2.574219 -9.046875 C 2.457031 -8.640625 2.285156 -8.179688 2.167969 -7.746094 C 2.023438 -7.371094 1.964844 -6.964844 1.878906 -6.648438 C 1.792969 -6.242188 1.761719 -6.097656 1.675781 -5.78125 C 1.617188 -5.550781 1.617188 -5.492188 1.617188 -5.375 L 1.445312 -4.421875 C 1.242188 -3.265625 1.242188 -2.976562 1.214844 -2.601562 C 1.128906 -1.761719 1.128906 -1.273438 1.214844 -0.550781 C 1.273438 -0.230469 1.328125 0.0859375 1.417969 0.347656 C 1.53125 0.605469 1.589844 0.839844 1.734375 1.039062 C 1.90625 1.242188 2.023438 1.417969 2.167969 1.589844 C 2.253906 1.675781 2.457031 1.851562 2.601562 1.90625 C 3.121094 2.140625 3.382812 2.109375 3.757812 2.023438 C 4.363281 1.851562 4.683594 0.695312 4.21875 0.894531 C 3.757812 1.214844 3.496094 1.417969 3.035156 1.214844 C 2.832031 1.128906 2.574219 0.722656 2.457031 0.433594 C 2.226562 -0.117188 2.109375 -0.78125 2.082031 -1.5625 C 2.050781 -2.050781 2.167969 -2.832031 2.226562 -3.296875 C 2.285156 -3.671875 2.429688 -4.21875 2.574219 -4.453125 C 2.949219 -4.769531 3.410156 -5.261719 3.730469 -5.609375 L 4.308594 -6.15625 C 4.394531 -6.242188 4.394531 -6.386719 4.539062 -6.503906 C 4.539062 -6.503906 4.566406 -6.53125 4.625 -6.503906 L 6.1875 -8.46875 C 6.386719 -8.757812 8.152344 -11.878906 8.179688 -11.851562 C 8.238281 -12.023438 8.296875 -12.199219 8.265625 -12.371094 C 8.238281 -12.429688 8.179688 -12.515625 8.238281 -12.601562 C 8.296875 -12.660156 8.351562 -12.777344 8.410156 -12.863281 L 8.527344 -13.355469 L 8.84375 -13.757812 L 8.785156 -13.84375 C 8.84375 -13.875 9.046875 -14.105469 8.902344 -14.277344 L 9.191406 -15.722656 C 9.105469 -15.957031 9.308594 -15.925781 9.308594 -16.15625 Z M 7.976562 -15.464844 C 7.890625 -14.914062 7.773438 -14.421875 7.574219 -13.933594 C 7.429688 -13.410156 7.195312 -12.921875 7.023438 -12.515625 C 6.734375 -11.910156 6.476562 -11.417969 6.214844 -10.839844 C 5.984375 -10.464844 5.808594 -10.117188 5.578125 -9.769531 C 5.40625 -9.507812 5.203125 -9.21875 4.972656 -8.988281 C 4.652344 -8.527344 4.25 -8.007812 3.902344 -7.574219 C 3.640625 -7.285156 3.296875 -6.792969 3.0625 -6.53125 L 3.238281 -7.339844 C 3.296875 -7.515625 3.382812 -7.601562 3.410156 -7.6875 C 3.613281 -8.09375 3.730469 -8.527344 3.875 -8.960938 C 4.046875 -9.25 4.164062 -9.652344 4.277344 -9.914062 C 4.335938 -10.058594 4.308594 -10.175781 4.363281 -10.347656 C 4.363281 -10.492188 4.453125 -10.664062 4.539062 -10.867188 C 4.625 -11.070312 4.683594 -11.300781 4.828125 -11.5625 C 4.886719 -11.648438 4.941406 -11.792969 5 -11.910156 C 5.117188 -12.226562 5.261719 -12.601562 5.40625 -12.890625 C 5.519531 -13.179688 5.722656 -13.46875 5.867188 -13.757812 C 6.070312 -14.078125 6.359375 -14.394531 6.476562 -14.769531 C 6.621094 -15.144531 6.878906 -15.464844 7.140625 -15.78125 C 7.3125 -16.101562 7.601562 -16.359375 7.863281 -16.621094 C 7.917969 -16.679688 7.949219 -16.734375 7.976562 -16.792969 L 8.179688 -16.96875 C 8.238281 -16.9375 8.265625 -16.9375 8.296875 -16.9375 C 8.179688 -16.445312 8.152344 -15.925781 7.976562 -15.464844 Z M 7.976562 -15.464844 "/></g></g></g><g fill="#2b2b2b" fill-opacity="1"><g transform="translate(36.853457, 17.541338)"><g><path d="M 9.914062 -1.039062 C 9.796875 -1.039062 9.132812 -0.578125 8.902344 -0.550781 L 8.324219 -0.289062 C 7.890625 -0.0585938 7.746094 0.0273438 7.398438 0.203125 C 6.996094 0.550781 6.503906 0.78125 5.898438 1.128906 C 5.839844 1.214844 5.753906 1.214844 5.695312 1.128906 L 5.753906 1.070312 C 5.808594 0.808594 5.808594 0.605469 5.867188 0.347656 C 5.867188 0.289062 6.011719 0.0585938 6.042969 0 C 6.011719 -0.261719 6.1875 -0.550781 6.042969 -0.78125 C 5.984375 -0.925781 6.011719 -1.070312 6.128906 -1.15625 C 6.128906 -1.15625 6.1875 -1.273438 6.1875 -1.359375 C 6.214844 -1.5625 6.1875 -1.792969 6.273438 -1.996094 C 6.242188 -2.167969 6.445312 -2.628906 6.417969 -2.949219 L 6.417969 -3.007812 C 6.445312 -3.09375 6.53125 -3.585938 6.5625 -3.785156 L 6.621094 -4.105469 C 6.386719 -4.105469 6.503906 -4.21875 6.300781 -4.308594 L 6.242188 -4.507812 L 6.242188 -4.566406 C 6.1875 -4.566406 6.070312 -4.625 6.011719 -4.625 C 5.898438 -4.625 5.722656 -4.625 5.664062 -4.742188 C 5.464844 -4.855469 5.40625 -4.769531 5.230469 -4.566406 C 4.886719 -4.394531 4.625 -4.105469 4.277344 -3.816406 C 4.019531 -3.640625 3.84375 -3.382812 3.554688 -3.207031 C 3.324219 -3.035156 3.152344 -2.6875 2.890625 -2.542969 C 2.832031 -2.457031 2.601562 -2.3125 2.457031 -2.226562 C 2.542969 -2.457031 2.574219 -2.574219 2.574219 -2.804688 C 2.6875 -3.152344 2.773438 -3.554688 2.832031 -3.757812 C 2.917969 -4.074219 2.832031 -4.335938 2.917969 -4.480469 C 2.976562 -4.597656 2.917969 -4.683594 2.917969 -4.683594 C 2.746094 -4.828125 2.515625 -5.085938 2.371094 -5.175781 C 2.167969 -5.289062 2.167969 -5.261719 2.023438 -5.320312 C 1.820312 -5.320312 1.761719 -5.230469 1.648438 -5.117188 C 1.648438 -5.03125 1.589844 -4.855469 1.675781 -4.769531 C 1.761719 -4.597656 1.761719 -4.421875 1.707031 -4.25 C 1.589844 -3.988281 1.5625 -3.671875 1.53125 -3.46875 C 1.472656 -3.09375 1.445312 -2.601562 1.328125 -2.253906 C 1.328125 -2.023438 1.097656 -1.878906 1.128906 -1.5625 C 1.183594 -1.386719 1.300781 -1.15625 1.386719 -0.984375 C 1.359375 -0.925781 2.023438 -0.578125 2.167969 -0.578125 C 2.398438 -0.636719 2.542969 -0.808594 2.773438 -0.984375 C 3.121094 -1.15625 3.324219 -1.472656 3.671875 -1.617188 C 4.132812 -2.023438 4.480469 -2.457031 4.914062 -2.71875 L 5.117188 -2.660156 C 5.085938 -2.484375 5 -2.3125 5.03125 -2.109375 C 5 -1.589844 4.914062 -1.039062 4.769531 -0.40625 C 4.742188 -0.0273438 4.683594 0.316406 4.597656 0.75 C 4.625 1.039062 4.507812 1.273438 4.453125 1.5625 C 4.453125 1.820312 4.480469 2.023438 4.164062 2.195312 C 3.960938 2.285156 3.671875 2.515625 3.410156 2.660156 C 3.238281 2.863281 2.976562 2.949219 2.660156 3.179688 C 2.339844 3.410156 1.9375 3.699219 1.5625 3.988281 C 0.867188 4.507812 0.203125 5.117188 -0.460938 5.664062 C -1.070312 6.300781 -1.734375 6.9375 -2.253906 7.628906 C -2.804688 8.351562 -3.351562 9.132812 -3.84375 9.972656 C -4.363281 10.867188 -4.769531 11.820312 -5 12.804688 C -5 13.121094 -5.058594 13.5 -5.144531 13.960938 C -5.117188 14.046875 -5.117188 14.132812 -5.117188 14.367188 C -5.289062 14.886719 -5.203125 15.40625 -4.914062 15.839844 C -4.769531 16.1875 -4.566406 16.535156 -4.453125 16.792969 C -3.929688 17.515625 -3.410156 17.980469 -2.515625 18.152344 C -2.3125 18.238281 -2.023438 18.238281 -1.851562 18.210938 C -1.503906 18.125 -0.75 18.179688 -0.460938 17.949219 C -0.492188 17.949219 0.0273438 17.574219 0.261719 17.371094 C 0.550781 17.257812 0.78125 17.113281 0.925781 17.054688 L 1.214844 16.589844 L 1.734375 15.8125 L 2.253906 14.597656 L 3.496094 11.996094 L 3.960938 9.941406 C 4.019531 9.683594 4.308594 8.988281 4.363281 8.929688 L 4.507812 8.007812 L 4.539062 8.007812 C 4.566406 8.0625 4.683594 8.007812 4.625 7.804688 C 4.828125 7.660156 4.886719 6.707031 4.941406 6.476562 C 4.972656 6.300781 5.40625 3.410156 5.464844 3.410156 L 5.40625 3.410156 C 5.40625 3.296875 5.464844 3.238281 5.492188 3.121094 C 5.578125 3.09375 5.550781 2.832031 5.636719 2.773438 C 5.808594 2.601562 5.867188 2.429688 5.925781 2.226562 L 6.097656 2.195312 L 6.707031 1.878906 L 7.976562 0.925781 L 8.585938 0.578125 C 8.816406 0.347656 9.019531 0.316406 9.21875 0.171875 C 9.277344 0.171875 9.421875 0 9.507812 -0.0585938 C 9.566406 -0.171875 9.828125 -0.460938 9.972656 -0.695312 Z M 4.074219 4.25 C 3.875 4.886719 3.757812 5.636719 3.730469 6.214844 C 3.585938 6.734375 3.496094 7.226562 3.410156 7.773438 C 3.441406 7.832031 3.296875 7.890625 3.296875 8.0625 L 3.382812 8.0625 C 3.238281 8.527344 3.09375 9.105469 3.035156 9.363281 C 2.71875 10.375 2.253906 11.386719 1.9375 12.398438 C 1.761719 12.746094 1.707031 13.09375 1.5625 13.441406 C 1.300781 13.933594 1.039062 14.367188 0.75 14.945312 C 0.578125 15.492188 0.0859375 15.957031 -0.347656 16.390625 C -0.722656 16.734375 -1.214844 17.140625 -1.707031 17.226562 C -2.140625 17.457031 -2.628906 17.488281 -3.035156 17.257812 L -3.121094 17.199219 L -3.179688 17.199219 C -3.207031 17.113281 -3.207031 17.054688 -3.207031 17.054688 C -3.382812 16.96875 -3.441406 16.824219 -3.441406 16.679688 C -3.554688 16.589844 -3.585938 16.445312 -3.585938 16.214844 C -3.699219 16.128906 -3.730469 16.070312 -3.816406 16.011719 C -3.816406 15.867188 -3.816406 15.867188 -3.929688 15.898438 L -3.929688 15.636719 L -3.816406 15.464844 C -3.929688 15.089844 -3.988281 14.828125 -3.988281 14.511719 C -3.988281 14.164062 -4.019531 13.84375 -3.84375 13.441406 C -3.699219 13.296875 -3.671875 12.976562 -3.671875 12.863281 C -3.585938 12.660156 -3.554688 12.398438 -3.410156 12.226562 C -3.382812 12.023438 -3.351562 11.792969 -3.207031 11.589844 C -3.007812 11.476562 -3.035156 11.214844 -2.863281 11.128906 C -2.71875 10.925781 -2.660156 10.808594 -2.574219 10.753906 C -2.660156 10.753906 -2.660156 10.636719 -2.746094 10.636719 L -2.660156 10.578125 C -2.515625 10.636719 -2.371094 10.40625 -2.3125 10.261719 C -2.253906 10.117188 -2.082031 9.828125 -2.023438 9.683594 C -1.851562 9.277344 -1.503906 9.019531 -1.300781 8.671875 C -1.214844 8.671875 -1.128906 8.671875 -1.128906 8.554688 C -1.097656 8.296875 -0.984375 8.296875 -0.925781 8.0625 C -0.75 8.0625 -0.695312 7.976562 -0.695312 7.890625 C -0.605469 7.832031 -0.433594 7.71875 -0.375 7.542969 C -0.40625 7.457031 -0.261719 7.457031 -0.230469 7.339844 L -0.375 7.339844 L -0.230469 7.253906 C 0.0585938 7.195312 0.261719 6.851562 0.492188 6.675781 C 0.460938 6.621094 0.578125 6.53125 0.664062 6.53125 C 0.75 6.445312 0.78125 6.300781 0.839844 6.300781 C 0.984375 6.214844 1.070312 6.214844 1.097656 6.214844 C 1.070312 6.1875 1.214844 6.042969 1.300781 5.898438 C 1.445312 5.839844 1.503906 5.695312 1.589844 5.578125 C 1.589844 5.492188 1.675781 5.492188 1.675781 5.492188 C 2.082031 5.40625 2.398438 5.117188 2.601562 4.855469 C 2.71875 4.742188 2.890625 4.683594 2.976562 4.566406 C 3.035156 4.566406 3.152344 4.453125 3.296875 4.363281 L 3.296875 4.277344 C 3.527344 4.277344 3.699219 4.074219 3.84375 3.84375 C 3.84375 3.699219 3.988281 3.699219 4.164062 3.640625 C 4.074219 3.816406 4.074219 4.046875 4.074219 4.25 Z M 4.074219 4.25 "/></g></g></g><g fill="#2b2b2b" fill-opacity="1"><g transform="translate(43.471388, 17.541338)"><g/></g></g><g fill="#2b2b2b" fill-opacity="1"><g transform="translate(46.33198, 17.541338)"><g><path d="M 15.636719 -12.054688 C 15.523438 -12.3125 15.320312 -12.601562 15.089844 -12.777344 C 14.394531 -13.296875 13.152344 -13.382812 12.253906 -13.296875 C 11.042969 -13.179688 10.175781 -12.832031 8.496094 -12.054688 C 7.832031 -11.734375 7.285156 -11.332031 6.675781 -10.867188 C 6.214844 -10.519531 5.808594 -10.117188 5.519531 -9.625 C 4.941406 -8.757812 4.855469 -7.773438 5.320312 -6.734375 C 5.722656 -5.78125 6.792969 -5 7.3125 -4.683594 C 7.890625 -4.308594 8.46875 -3.902344 9.105469 -3.585938 C 10.03125 -3.152344 10.925781 -2.601562 11.675781 -1.90625 C 12.109375 -1.503906 12.515625 -1.097656 12.746094 -0.550781 C 13.035156 0.0585938 12.921875 0.605469 12.601562 1.097656 C 12.34375 1.503906 11.964844 1.90625 11.5625 2.167969 C 10.550781 2.832031 9.046875 3.585938 7.484375 3.816406 C 6.820312 3.929688 6.15625 3.960938 5.492188 3.929688 C 4.941406 3.902344 4.363281 3.730469 3.785156 3.382812 C 2.976562 2.890625 2.660156 1.589844 2.71875 0.722656 C 2.804688 -0.40625 3.527344 -0.984375 4.480469 -1.273438 C 4.972656 -1.445312 4.105469 -2.3125 3.410156 -1.964844 C 3.265625 -1.90625 1.417969 -0.0585938 1.445312 0.636719 C 1.53125 2.628906 2.890625 4.105469 5 4.480469 C 6.242188 4.683594 7.484375 4.710938 8.730469 4.507812 C 10.578125 4.21875 12.777344 3.265625 13.644531 2.050781 C 14.019531 1.503906 14.164062 0.894531 13.902344 0.171875 C 13.554688 -0.664062 13.066406 -1.386719 12.371094 -1.996094 C 11.476562 -2.773438 10.492188 -3.410156 9.421875 -3.960938 C 9.21875 -4.074219 9.019531 -4.164062 8.816406 -4.308594 C 8.324219 -4.597656 7.773438 -4.886719 7.285156 -5.230469 C 6.332031 -5.984375 5.664062 -7.195312 6.386719 -8.527344 C 7.140625 -9.828125 8.46875 -10.433594 8.902344 -10.808594 L 9.597656 -11.332031 C 9.652344 -11.53125 9.742188 -11.621094 9.886719 -11.621094 C 10 -11.621094 10.203125 -11.675781 10.289062 -11.734375 C 10.40625 -11.792969 10.464844 -11.851562 10.578125 -11.9375 C 10.695312 -12.140625 12.140625 -12.398438 12.398438 -12.457031 C 12.398438 -12.457031 12.777344 -12.398438 12.949219 -12.515625 L 13.46875 -12.457031 C 13.789062 -12.429688 14.308594 -12.140625 14.511719 -11.734375 C 14.742188 -11.273438 14.742188 -10.839844 14.683594 -10.375 C 14.566406 -9.539062 14.308594 -9.21875 13.757812 -8.699219 C 13.382812 -8.324219 13.007812 -8.207031 13.09375 -7.976562 C 13.527344 -7.253906 14.019531 -7.429688 14.625 -7.890625 C 15.839844 -8.902344 16.246094 -10.664062 15.636719 -12.054688 Z M 15.636719 -12.054688 "/></g></g></g><g fill="#2b2b2b" fill-opacity="1"><g transform="translate(59.94434, 17.541338)"><g><path d="M 1.5625 1.53125 C 1.707031 1.53125 1.878906 1.417969 2.023438 1.359375 C 2.253906 1.300781 2.429688 1.097656 2.601562 0.925781 C 2.773438 0.78125 2.890625 0.605469 2.976562 0.460938 C 3.035156 0.40625 3.152344 0.289062 3.179688 0.230469 C 3.324219 0.0273438 3.496094 -0.117188 3.640625 -0.316406 C 3.84375 -0.550781 4.046875 -0.78125 4.21875 -1.039062 C 4.25 -0.519531 4.164062 0 4.394531 0.460938 C 4.539062 0.695312 4.566406 0.925781 4.886719 0.925781 C 4.914062 0.925781 4.914062 0.953125 4.972656 0.984375 C 5.144531 1.15625 5.636719 1.242188 5.867188 1.070312 C 6.070312 0.953125 6.242188 0.78125 6.417969 0.695312 C 6.707031 0.519531 6.878906 0.289062 7.082031 0.0273438 C 7.371094 -0.289062 7.601562 -0.636719 7.863281 -1.011719 C 7.863281 -1.039062 7.863281 -1.070312 7.890625 -1.070312 C 8.0625 -1.128906 8.152344 -1.300781 8.179688 -1.472656 L 8.410156 -1.734375 C 8.785156 -2.542969 8.988281 -3.296875 9.019531 -3.988281 C 9.046875 -4.277344 8.929688 -4.683594 8.929688 -4.972656 C 8.929688 -5.203125 8.816406 -5.433594 8.671875 -5.636719 C 8.554688 -5.753906 8.46875 -5.808594 8.324219 -5.808594 L 8.265625 -5.722656 C 8.324219 -5.664062 8.324219 -5.578125 8.351562 -5.433594 C 8.382812 -5.085938 8.351562 -4.710938 8.238281 -4.394531 C 8.152344 -4.164062 8.152344 -3.929688 8.0625 -3.671875 C 7.832031 -3.296875 7.6875 -2.832031 7.457031 -2.457031 C 7.226562 -2.140625 6.964844 -1.761719 6.761719 -1.445312 C 6.53125 -1.183594 6.300781 -0.953125 6.011719 -0.695312 C 5.808594 -0.492188 5.609375 -0.289062 5.347656 -0.0585938 C 5.375 -0.261719 5.347656 -0.40625 5.347656 -0.578125 C 5.375 -0.78125 5.375 -0.953125 5.375 -1.128906 L 5.550781 -1.90625 C 5.578125 -2.109375 5.609375 -2.285156 5.808594 -2.457031 C 5.808594 -2.457031 5.808594 -2.515625 5.78125 -2.542969 C 5.753906 -2.601562 5.722656 -2.71875 5.664062 -2.804688 C 5.609375 -2.804688 5.492188 -2.804688 5.375 -2.804688 L 5.375 -2.832031 C 5.347656 -3.007812 5.144531 -3.007812 4.886719 -3.035156 C 4.886719 -3.035156 4.855469 -3.035156 4.855469 -3.0625 C 4.710938 -3.179688 4.652344 -3.179688 4.566406 -3.007812 C 4.507812 -2.976562 4.480469 -2.917969 4.421875 -2.890625 C 4.019531 -2.398438 3.671875 -1.9375 3.265625 -1.503906 C 2.890625 -1.070312 2.542969 -0.722656 2.167969 -0.316406 L 1.820312 0.0273438 C 1.761719 0.0273438 1.734375 0.0273438 1.734375 0 C 1.761719 -0.40625 1.820312 -0.894531 1.964844 -1.359375 C 1.964844 -1.445312 2.023438 -1.5625 2.050781 -1.648438 C 2.050781 -1.734375 2.082031 -1.851562 2.109375 -1.9375 C 2.195312 -2.167969 2.253906 -2.398438 2.339844 -2.574219 C 2.398438 -2.773438 2.457031 -2.949219 2.515625 -3.121094 L 2.6875 -3.640625 C 2.6875 -3.84375 2.660156 -4.046875 2.457031 -4.164062 C 2.339844 -4.277344 2.167969 -4.191406 2.050781 -4.21875 C 2.023438 -4.21875 1.964844 -4.25 1.9375 -4.277344 C 1.9375 -4.277344 1.851562 -4.335938 1.761719 -4.335938 C 1.589844 -4.394531 1.5625 -4.363281 1.53125 -4.191406 C 1.472656 -4.019531 1.445312 -3.785156 1.417969 -3.554688 C 1.300781 -3.238281 1.214844 -2.917969 1.128906 -2.574219 C 0.984375 -2.167969 0.839844 -1.761719 0.78125 -1.359375 C 0.664062 -0.839844 0.550781 -0.316406 0.578125 0.203125 C 0.578125 0.605469 0.695312 1.011719 1.039062 1.300781 C 1.070312 1.273438 1.097656 1.242188 1.183594 1.214844 C 1.214844 1.273438 1.214844 1.300781 1.242188 1.328125 C 1.359375 1.386719 1.445312 1.503906 1.5625 1.53125 Z M 1.5625 1.53125 "/></g></g></g><g fill="#2b2b2b" fill-opacity="1"><g transform="translate(67.111414, 17.541338)"><g><path d="M 7.601562 -2.832031 C 7.6875 -2.890625 7.746094 -2.976562 7.832031 -3.035156 C 7.832031 -3.0625 7.804688 -3.0625 7.804688 -3.0625 L 7.746094 -3.265625 L 6.761719 -2.542969 C 6.707031 -2.484375 6.53125 -2.398438 6.417969 -2.339844 C 6.128906 -2.167969 5.578125 -1.851562 5.320312 -1.675781 L 5.230469 -1.617188 L 4.277344 -1.070312 C 4.132812 -0.984375 3.988281 -0.984375 3.84375 -0.925781 C 3.613281 -0.839844 3.382812 -0.722656 3.179688 -0.636719 C 2.917969 -0.550781 2.660156 -0.433594 2.398438 -0.40625 C 2.023438 -0.347656 1.648438 -0.375 1.273438 -0.347656 C 1.039062 -0.433594 0.984375 -0.492188 0.867188 -0.839844 C 1.070312 -0.953125 1.15625 -0.984375 1.386719 -1.097656 C 1.445312 -1.15625 1.503906 -1.242188 1.589844 -1.273438 C 1.761719 -1.386719 1.996094 -1.472656 2.195312 -1.589844 C 2.226562 -1.617188 2.226562 -1.707031 2.253906 -1.734375 L 2.660156 -2.023438 C 2.773438 -2.082031 2.976562 -2.109375 3.007812 -2.3125 C 3.035156 -2.398438 3.207031 -2.429688 3.296875 -2.515625 C 3.554688 -2.773438 3.816406 -3.035156 4.074219 -3.324219 C 4.164062 -3.410156 4.25 -3.554688 4.308594 -3.699219 C 4.394531 -3.929688 4.25 -4.421875 4.019531 -4.566406 C 3.816406 -4.742188 3.585938 -4.914062 3.324219 -5.03125 C 3.121094 -5.144531 2.863281 -5.347656 2.574219 -5.230469 C 2.457031 -5.203125 2.371094 -5.175781 2.285156 -5.175781 C 1.90625 -5.144531 1.589844 -4.972656 1.328125 -4.710938 C 1.070312 -4.421875 0.808594 -4.132812 0.550781 -3.816406 C 0.40625 -3.640625 0.289062 -3.46875 0.171875 -3.296875 C -0.117188 -2.746094 -0.261719 -2.195312 -0.289062 -1.617188 C -0.289062 -1.417969 -0.316406 -1.214844 -0.171875 -0.867188 C -0.117188 -0.578125 -0.117188 -0.578125 -0.0585938 -0.519531 C 0.117188 -0.261719 0.230469 -0.0859375 0.433594 0.0585938 C 0.460938 0.0859375 0.550781 0.117188 0.578125 0.171875 C 0.867188 0.40625 0.984375 0.433594 1.242188 0.519531 C 1.503906 0.605469 1.820312 0.664062 2.109375 0.695312 C 2.339844 0.722656 2.542969 0.664062 2.773438 0.605469 C 2.917969 0.578125 3.09375 0.550781 3.207031 0.492188 C 3.296875 0.433594 3.351562 0.40625 3.46875 0.40625 C 3.671875 0.375 3.875 0.375 4.046875 0.289062 C 4.335938 0.171875 4.566406 -0.0273438 4.828125 -0.171875 C 5.03125 -0.316406 5.203125 -0.433594 5.433594 -0.550781 L 5.984375 -0.984375 C 6.097656 -1.070312 6.242188 -1.183594 6.359375 -1.300781 C 6.386719 -1.328125 6.503906 -1.445312 6.53125 -1.53125 L 6.53125 -1.5625 C 6.5625 -1.761719 6.675781 -1.820312 6.792969 -1.90625 C 6.707031 -1.996094 6.761719 -2.050781 6.878906 -2.109375 L 6.964844 -2.226562 C 7.109375 -2.3125 7.109375 -2.398438 7.167969 -2.457031 Z M 1.039062 -2.601562 C 1.214844 -2.949219 1.417969 -3.296875 1.648438 -3.613281 C 1.851562 -3.875 2.109375 -4.019531 2.371094 -4.21875 C 2.601562 -4.394531 2.863281 -4.394531 3.121094 -4.507812 C 3.238281 -4.566406 3.382812 -4.308594 3.296875 -4.164062 C 3.179688 -3.960938 3.0625 -3.785156 2.890625 -3.640625 L 2.109375 -2.949219 L 1.328125 -2.3125 C 1.214844 -2.226562 1.070312 -2.140625 0.839844 -1.996094 C 0.894531 -2.226562 0.953125 -2.429688 1.039062 -2.601562 Z M 1.039062 -2.601562 "/></g></g></g><g fill="#2b2b2b" fill-opacity="1"><g transform="translate(71.763962, 17.541338)"><g><path d="M 7.601562 -2.832031 C 7.6875 -2.890625 7.746094 -2.976562 7.832031 -3.035156 C 7.832031 -3.0625 7.804688 -3.0625 7.804688 -3.0625 L 7.746094 -3.265625 L 6.761719 -2.542969 C 6.707031 -2.484375 6.53125 -2.398438 6.417969 -2.339844 C 6.128906 -2.167969 5.578125 -1.851562 5.320312 -1.675781 L 5.230469 -1.617188 L 4.277344 -1.070312 C 4.132812 -0.984375 3.988281 -0.984375 3.84375 -0.925781 C 3.613281 -0.839844 3.382812 -0.722656 3.179688 -0.636719 C 2.917969 -0.550781 2.660156 -0.433594 2.398438 -0.40625 C 2.023438 -0.347656 1.648438 -0.375 1.273438 -0.347656 C 1.039062 -0.433594 0.984375 -0.492188 0.867188 -0.839844 C 1.070312 -0.953125 1.15625 -0.984375 1.386719 -1.097656 C 1.445312 -1.15625 1.503906 -1.242188 1.589844 -1.273438 C 1.761719 -1.386719 1.996094 -1.472656 2.195312 -1.589844 C 2.226562 -1.617188 2.226562 -1.707031 2.253906 -1.734375 L 2.660156 -2.023438 C 2.773438 -2.082031 2.976562 -2.109375 3.007812 -2.3125 C 3.035156 -2.398438 3.207031 -2.429688 3.296875 -2.515625 C 3.554688 -2.773438 3.816406 -3.035156 4.074219 -3.324219 C 4.164062 -3.410156 4.25 -3.554688 4.308594 -3.699219 C 4.394531 -3.929688 4.25 -4.421875 4.019531 -4.566406 C 3.816406 -4.742188 3.585938 -4.914062 3.324219 -5.03125 C 3.121094 -5.144531 2.863281 -5.347656 2.574219 -5.230469 C 2.457031 -5.203125 2.371094 -5.175781 2.285156 -5.175781 C 1.90625 -5.144531 1.589844 -4.972656 1.328125 -4.710938 C 1.070312 -4.421875 0.808594 -4.132812 0.550781 -3.816406 C 0.40625 -3.640625 0.289062 -3.46875 0.171875 -3.296875 C -0.117188 -2.746094 -0.261719 -2.195312 -0.289062 -1.617188 C -0.289062 -1.417969 -0.316406 -1.214844 -0.171875 -0.867188 C -0.117188 -0.578125 -0.117188 -0.578125 -0.0585938 -0.519531 C 0.117188 -0.261719 0.230469 -0.0859375 0.433594 0.0585938 C 0.460938 0.0859375 0.550781 0.117188 0.578125 0.171875 C 0.867188 0.40625 0.984375 0.433594 1.242188 0.519531 C 1.503906 0.605469 1.820312 0.664062 2.109375 0.695312 C 2.339844 0.722656 2.542969 0.664062 2.773438 0.605469 C 2.917969 0.578125 3.09375 0.550781 3.207031 0.492188 C 3.296875 0.433594 3.351562 0.40625 3.46875 0.40625 C 3.671875 0.375 3.875 0.375 4.046875 0.289062 C 4.335938 0.171875 4.566406 -0.0273438 4.828125 -0.171875 C 5.03125 -0.316406 5.203125 -0.433594 5.433594 -0.550781 L 5.984375 -0.984375 C 6.097656 -1.070312 6.242188 -1.183594 6.359375 -1.300781 C 6.386719 -1.328125 6.503906 -1.445312 6.53125 -1.53125 L 6.53125 -1.5625 C 6.5625 -1.761719 6.675781 -1.820312 6.792969 -1.90625 C 6.707031 -1.996094 6.761719 -2.050781 6.878906 -2.109375 L 6.964844 -2.226562 C 7.109375 -2.3125 7.109375 -2.398438 7.167969 -2.457031 Z M 1.039062 -2.601562 C 1.214844 -2.949219 1.417969 -3.296875 1.648438 -3.613281 C 1.851562 -3.875 2.109375 -4.019531 2.371094 -4.21875 C 2.601562 -4.394531 2.863281 -4.394531 3.121094 -4.507812 C 3.238281 -4.566406 3.382812 -4.308594 3.296875 -4.164062 C 3.179688 -3.960938 3.0625 -3.785156 2.890625 -3.640625 L 2.109375 -2.949219 L 1.328125 -2.3125 C 1.214844 -2.226562 1.070312 -2.140625 0.839844 -1.996094 C 0.894531 -2.226562 0.953125 -2.429688 1.039062 -2.601562 Z M 1.039062 -2.601562 "/></g></g></g><g clip-path="url(#de2676b54f)"><g fill="#2b2b2b" fill-opacity="1"><g transform="translate(76.41651, 17.541338)"><g><path d="M 6.070312 -9.539062 C 6.242188 -9.566406 6.621094 -9.625 6.734375 -9.539062 C 6.9375 -9.625 7.226562 -9.625 7.398438 -9.625 L 7.457031 -9.652344 C 7.574219 -9.828125 8.007812 -9.855469 7.917969 -10.144531 C 7.832031 -10.203125 7.6875 -10.085938 7.628906 -10.058594 C 7.023438 -9.941406 6.851562 -9.972656 5.464844 -10.03125 C 5.347656 -10 5.117188 -10.085938 4.710938 -10.117188 C 4.769531 -10.433594 4.855469 -10.578125 5.058594 -11.15625 C 5.203125 -11.53125 5.433594 -11.910156 5.519531 -12.253906 C 5.808594 -12.746094 6.042969 -13.265625 6.273438 -13.816406 C 6.359375 -14.019531 6.445312 -14.164062 6.214844 -14.308594 C 6.15625 -14.394531 6.042969 -14.453125 6.011719 -14.539062 C 5.984375 -14.769531 5.722656 -14.828125 5.492188 -14.972656 C 5.433594 -15 5.375 -15 5.347656 -15.058594 C 5.230469 -15.089844 5.144531 -15.058594 5.085938 -14.886719 C 5.03125 -14.683594 4.914062 -14.394531 4.855469 -14.191406 C 4.769531 -14.046875 4.683594 -13.988281 4.683594 -13.875 C 4.507812 -13.527344 4.453125 -13.210938 4.308594 -12.890625 C 4.21875 -12.542969 4.046875 -12.226562 3.960938 -11.9375 C 3.84375 -11.648438 3.730469 -11.386719 3.640625 -11.097656 C 3.46875 -10.808594 3.441406 -10.519531 3.265625 -10.230469 C 3.09375 -10.230469 2.890625 -10.230469 2.628906 -10.203125 L 2.082031 -10.261719 C 1.878906 -10.347656 1.675781 -10.289062 1.503906 -10.203125 C 1.445312 -10.175781 1.359375 -10.203125 1.328125 -10.203125 C 1.328125 -10.203125 1.214844 -10.230469 1.070312 -10.058594 C 0.925781 -10 0.867188 -9.828125 0.867188 -9.742188 C 0.894531 -9.480469 1.214844 -9.421875 1.5625 -9.335938 C 2.109375 -9.277344 2.515625 -9.25 2.890625 -9.25 L 2.601562 -8.351562 L 1.675781 -5.464844 C 1.707031 -5.433594 1.707031 -5.375 1.734375 -5.347656 L 1.675781 -5.347656 C 1.617188 -5.203125 1.53125 -5.117188 1.53125 -5 C 1.417969 -4.625 1.417969 -4.308594 1.300781 -3.988281 L 1.097656 -3.179688 C 1.039062 -2.832031 0.925781 -2.484375 0.953125 -2.140625 C 0.894531 -1.53125 0.808594 -0.953125 0.925781 -0.375 C 1.039062 0.203125 1.15625 0.78125 1.472656 1.242188 C 1.53125 1.300781 1.589844 1.359375 1.648438 1.445312 C 1.878906 1.707031 1.996094 1.878906 2.253906 1.964844 C 2.660156 2.226562 2.746094 2.195312 3.179688 2.167969 L 3.121094 2.167969 C 3.296875 2.167969 3.351562 2.140625 3.410156 2.050781 C 3.554688 1.820312 3.816406 1.648438 3.730469 1.359375 C 3.730469 1.359375 3.382812 1.53125 3.152344 1.503906 C 2.890625 1.53125 2.863281 1.503906 2.601562 1.359375 L 2.398438 1.128906 C 2.339844 1.070312 2.226562 0.953125 2.226562 0.75 C 2.167969 0.550781 2.109375 0.347656 2.140625 0.144531 C 2.140625 0.0273438 2.140625 -0.0585938 2.023438 -0.0859375 C 2.140625 -0.144531 2.050781 -0.171875 1.996094 -0.230469 C 2.140625 -0.261719 2.109375 -0.78125 1.996094 -0.925781 C 2.050781 -1.011719 2.109375 -1.128906 2.140625 -1.214844 C 2.082031 -1.242188 2.050781 -1.273438 2.082031 -1.273438 C 2.109375 -1.300781 2.140625 -1.359375 2.140625 -1.417969 C 2.140625 -1.648438 2.167969 -1.851562 2.253906 -2.109375 C 2.226562 -2.195312 2.253906 -2.339844 2.285156 -2.457031 C 2.285156 -2.542969 2.371094 -2.660156 2.371094 -2.71875 C 2.371094 -2.863281 2.457031 -3.035156 2.371094 -3.179688 C 2.429688 -3.265625 2.515625 -3.351562 2.542969 -3.441406 C 2.574219 -3.757812 2.6875 -4.074219 2.773438 -4.394531 C 2.773438 -4.566406 2.863281 -4.742188 2.949219 -4.914062 C 2.976562 -5.175781 3.121094 -5.464844 3.179688 -5.753906 C 3.207031 -5.867188 3.265625 -5.984375 3.324219 -6.128906 C 3.382812 -6.300781 3.351562 -6.476562 3.441406 -6.675781 C 3.441406 -6.734375 3.410156 -6.792969 3.441406 -6.792969 C 3.613281 -6.851562 3.585938 -6.964844 3.554688 -7.023438 C 3.527344 -7.082031 3.585938 -7.140625 3.585938 -7.195312 C 3.699219 -7.3125 3.785156 -7.515625 3.757812 -7.628906 C 3.816406 -7.71875 3.875 -7.773438 3.84375 -7.832031 C 3.785156 -7.949219 3.902344 -8.179688 4.019531 -8.238281 L 4.335938 -9.21875 L 4.652344 -9.21875 C 4.914062 -9.25 5.347656 -9.21875 5.664062 -9.21875 C 6.042969 -9.25 6.300781 -9.25 6.445312 -9.25 C 6.707031 -9.25 6.964844 -9.277344 7.050781 -9.335938 L 7.484375 -9.394531 C 7.542969 -9.421875 7.574219 -9.453125 7.484375 -9.507812 C 6.90625 -9.453125 6.675781 -9.453125 5.550781 -9.421875 L 5.578125 -9.480469 Z M 6.070312 -9.539062 "/></g></g></g></g></svg>