<svg xmlns="http://www.w3.org/2000/svg" xmlns:xlink="http://www.w3.org/1999/xlink" width="161" zoomAndPan="magnify" viewBox="0 0 120.75 37.5" height="50" preserveAspectRatio="xMidYMid meet" version="1.0"><defs><g/><clipPath id="2f51618a4a"><path d="M 111 9 L 119.832031 9 L 119.832031 26 L 111 26 Z M 111 9 " clip-rule="nonzero"/></clipPath></defs><g fill="#2b2b2b" fill-opacity="1"><g transform="translate(0.791043, 25.008436)"><g><path d="M 5.722656 -7.242188 C 6.492188 -6.855469 7.648438 -6.335938 8.628906 -5.664062 C 11.710938 -3.542969 9.957031 -0.210938 7.203125 -0.210938 C 5.355469 -0.210938 2.484375 -1.675781 1.195312 -5.894531 C 1.019531 -3.234375 0.695312 -1.367188 0.386719 0 C 0.945312 -0.25 1.503906 -0.308594 2.042969 -0.269531 C 3.371094 -0.171875 5.433594 0.386719 7.242188 0.386719 C 8.859375 0.386719 10.460938 0.0585938 11.710938 -0.578125 C 13.484375 -1.464844 14.8125 -3.101562 14.8125 -5.144531 C 14.792969 -8.496094 10.75 -9.746094 7.609375 -11.132812 C 2.734375 -13.273438 5.507812 -16.914062 7.53125 -16.914062 C 9.378906 -16.914062 11.519531 -15.46875 12.808594 -11.25 C 12.964844 -13.90625 13.289062 -15.777344 13.597656 -17.144531 C 13.039062 -16.894531 12.5 -16.835938 11.941406 -16.875 C 10.632812 -16.96875 9.035156 -17.507812 7.222656 -17.507812 C 3.988281 -17.527344 0.386719 -15.96875 0.386719 -12.90625 C 0.386719 -10.035156 3.121094 -8.496094 5.722656 -7.242188 Z M 5.722656 -7.242188 "/></g></g></g><g fill="#2b2b2b" fill-opacity="1"><g transform="translate(13.803092, 25.008436)"><g><path d="M 0.65625 0 L 5.722656 0 C 4.566406 -4.71875 4.566406 -7.242188 5.722656 -11.960938 L 0.65625 -11.960938 C 1.792969 -7.242188 1.792969 -4.71875 0.65625 0 Z M 3.253906 -13.8125 C 6.855469 -14.214844 6.875 -18.261719 3.253906 -17.855469 C -0.386719 -17.433594 -0.367188 -13.40625 3.253906 -13.8125 Z M 3.253906 -13.8125 "/></g></g></g><g fill="#2b2b2b" fill-opacity="1"><g transform="translate(18.496793, 25.008436)"><g><path d="M 0.539062 -11.960938 C 1.675781 -7.242188 1.675781 -4.71875 0.539062 0 L 5.605469 0 C 4.777344 -6.894531 6.722656 -10.863281 7.800781 -10.863281 C 8.109375 -10.863281 8.339844 -10.554688 8.4375 -9.9375 C 8.820312 -7.378906 6.550781 -2.734375 7.378906 0 L 11.710938 0 C 10.882812 -6.914062 12.828125 -10.863281 13.90625 -10.863281 C 14.214844 -10.863281 14.445312 -10.554688 14.542969 -9.9375 C 14.949219 -7.378906 12.675781 -2.734375 13.484375 0 L 18.570312 0 C 15.851562 -5.085938 18.605469 -7.878906 17.585938 -10.710938 C 17.199219 -11.789062 16.410156 -12.347656 15.523438 -12.347656 C 14.175781 -12.347656 12.597656 -11.132812 11.691406 -8.589844 C 11.75 -9.324219 11.710938 -10.015625 11.460938 -10.710938 C 11.074219 -11.789062 10.285156 -12.347656 9.378906 -12.347656 C 7.414062 -12.347656 4.875 -9.667969 4.855469 -3.949219 C 4.566406 -6.53125 4.816406 -8.726562 5.605469 -11.960938 Z M 0.539062 -11.960938 "/></g></g></g><g fill="#2b2b2b" fill-opacity="1"><g transform="translate(35.590993, 25.008436)"><g><path d="M 0.539062 -11.960938 C 1.695312 -7.242188 1.695312 0.460938 0.539062 5.179688 L 5.605469 5.179688 C 5.199219 3.542969 4.929688 1.539062 4.816406 -0.578125 C 5.144531 0.136719 5.855469 0.40625 6.625 0.40625 C 9.765625 0.40625 11.808594 -2.640625 12.5 -5.605469 C 13.039062 -7.992188 12.730469 -12.347656 9.417969 -12.347656 C 7.722656 -12.347656 5.953125 -10.960938 4.96875 -8.246094 C 5.125 -9.59375 5.335938 -10.863281 5.605469 -11.960938 Z M 4.835938 -5.394531 C 5.238281 -8.589844 6.644531 -10.402344 7.722656 -10.402344 C 7.859375 -10.402344 7.972656 -10.382812 8.089844 -10.324219 C 10.191406 -9.4375 8.496094 -1.386719 6.335938 -0.558594 C 6.203125 -0.5 6.066406 -0.480469 5.953125 -0.480469 C 5.46875 -0.480469 5.066406 -0.847656 4.875 -1.40625 C 4.679688 -2.910156 4.699219 -4.238281 4.835938 -5.394531 Z M 4.835938 -5.394531 "/></g></g></g><g fill="#2b2b2b" fill-opacity="1"><g transform="translate(46.850799, 25.008436)"><g><path d="M 0.539062 0 L 5.605469 0 C 4.449219 -4.71875 4.449219 -12.425781 5.605469 -17.144531 L 0.539062 -17.144531 C 1.675781 -12.425781 1.675781 -4.71875 0.539062 0 Z M 0.539062 0 "/></g></g></g><g fill="#2b2b2b" fill-opacity="1"><g transform="translate(51.178647, 25.008436)"><g><path d="M 3.910156 5.179688 C 6.875 5.027344 8.996094 3.71875 9.902344 0.828125 C 11.132812 -3.160156 9.902344 -9.285156 12.171875 -11.960938 L 7.109375 -11.960938 C 7.78125 -10.960938 8.246094 -9.207031 8.359375 -7.128906 C 8.609375 -2.890625 6.761719 -0.945312 5.507812 -0.945312 C 4.949219 -0.945312 4.507812 -1.308594 4.390625 -2.023438 C 4.007812 -4.585938 5.644531 -9.226562 4.816406 -11.960938 L -0.25 -11.960938 C 1.695312 -8.320312 1.175781 -5.855469 1.078125 -3.699219 C 0.925781 -0.867188 2.601562 0.480469 4.410156 0.386719 C 6.261719 0.289062 8.261719 -1.289062 8.6875 -4.257812 C 9.285156 -2.910156 9.785156 -0.710938 9.285156 0.90625 C 8.996094 1.90625 8.011719 2.640625 7.011719 2.640625 C 6.644531 2.640625 6.28125 2.542969 5.933594 2.332031 C 5.566406 2.097656 5.296875 1.617188 5.375 0.808594 C 0.25 1.253906 -0.347656 5.414062 3.910156 5.179688 Z M 3.910156 5.179688 "/></g></g></g><g fill="#2b2b2b" fill-opacity="1"><g transform="translate(61.379404, 25.008436)"><g/></g></g><g fill="#2b2b2b" fill-opacity="1"><g transform="translate(64.590437, 25.008436)"><g><path d="M 5.722656 -7.242188 C 6.492188 -6.855469 7.648438 -6.335938 8.628906 -5.664062 C 11.710938 -3.542969 9.957031 -0.210938 7.203125 -0.210938 C 5.355469 -0.210938 2.484375 -1.675781 1.195312 -5.894531 C 1.019531 -3.234375 0.695312 -1.367188 0.386719 0 C 0.945312 -0.25 1.503906 -0.308594 2.042969 -0.269531 C 3.371094 -0.171875 5.433594 0.386719 7.242188 0.386719 C 8.859375 0.386719 10.460938 0.0585938 11.710938 -0.578125 C 13.484375 -1.464844 14.8125 -3.101562 14.8125 -5.144531 C 14.792969 -8.496094 10.75 -9.746094 7.609375 -11.132812 C 2.734375 -13.273438 5.507812 -16.914062 7.53125 -16.914062 C 9.378906 -16.914062 11.519531 -15.46875 12.808594 -11.25 C 12.964844 -13.90625 13.289062 -15.777344 13.597656 -17.144531 C 13.039062 -16.894531 12.5 -16.835938 11.941406 -16.875 C 10.632812 -16.96875 9.035156 -17.507812 7.222656 -17.507812 C 3.988281 -17.527344 0.386719 -15.96875 0.386719 -12.90625 C 0.386719 -10.035156 3.121094 -8.496094 5.722656 -7.242188 Z M 5.722656 -7.242188 "/></g></g></g><g fill="#2b2b2b" fill-opacity="1"><g transform="translate(77.602488, 25.008436)"><g><path d="M 3.082031 0 L 8.148438 0.0195312 C 6.203125 -2.464844 6.761719 -5.796875 8.167969 -8.589844 C 9.4375 -5.566406 10.554688 -1.734375 10.554688 0 L 15.621094 0.0195312 C 12.90625 -3.601562 15.390625 -8.957031 17.914062 -11.960938 L 14.136719 -11.960938 C 15.238281 -8.011719 13.867188 -6.453125 13.832031 -3.46875 C 12.519531 -6.105469 11.09375 -10.421875 11.054688 -11.960938 L 6.433594 -11.960938 C 6.742188 -11.558594 7.011719 -11.09375 7.144531 -10.613281 C 7.878906 -8.378906 6.375 -6.027344 6.335938 -3.46875 C 5.046875 -6.105469 3.601562 -10.421875 3.582031 -11.960938 L -1.039062 -11.960938 C 0.730469 -9.496094 3.082031 -2.582031 3.082031 0 Z M 3.082031 0 "/></g></g></g><g fill="#2b2b2b" fill-opacity="1"><g transform="translate(92.520826, 25.008436)"><g><path d="M 0.386719 -5.585938 C 0.386719 -2.425781 2.621094 0.386719 6.355469 0.386719 C 8.03125 0.386719 9.648438 -0.480469 10.515625 -1.945312 C 11.34375 -3.390625 10.691406 -4.699219 9.265625 -4.699219 C 8.550781 -4.699219 7.667969 -4.371094 6.664062 -3.582031 C 7.742188 -2.792969 8.515625 -0.328125 7.128906 -0.25 C 5.199219 -0.136719 4.121094 -2.332031 4.007812 -4.449219 C 6.414062 -4.449219 11.191406 -6.183594 11.039062 -9.363281 C 10.941406 -11.558594 8.628906 -12.347656 6.761719 -12.347656 C 3.042969 -12.347656 0.386719 -9.378906 0.386719 -5.585938 Z M 4.335938 -8.207031 C 4.929688 -10.441406 6.183594 -11.789062 7.03125 -11.789062 C 7.703125 -11.789062 8.109375 -10.921875 7.6875 -8.9375 C 7.300781 -7.128906 5.855469 -5.105469 3.988281 -5.007812 C 3.988281 -6.261719 4.140625 -7.472656 4.335938 -8.207031 Z M 4.335938 -8.207031 "/></g></g></g><g fill="#2b2b2b" fill-opacity="1"><g transform="translate(102.105403, 25.008436)"><g><path d="M 0.386719 -5.585938 C 0.386719 -2.425781 2.621094 0.386719 6.355469 0.386719 C 8.03125 0.386719 9.648438 -0.480469 10.515625 -1.945312 C 11.34375 -3.390625 10.691406 -4.699219 9.265625 -4.699219 C 8.550781 -4.699219 7.667969 -4.371094 6.664062 -3.582031 C 7.742188 -2.792969 8.515625 -0.328125 7.128906 -0.25 C 5.199219 -0.136719 4.121094 -2.332031 4.007812 -4.449219 C 6.414062 -4.449219 11.191406 -6.183594 11.039062 -9.363281 C 10.941406 -11.558594 8.628906 -12.347656 6.761719 -12.347656 C 3.042969 -12.347656 0.386719 -9.378906 0.386719 -5.585938 Z M 4.335938 -8.207031 C 4.929688 -10.441406 6.183594 -11.789062 7.03125 -11.789062 C 7.703125 -11.789062 8.109375 -10.921875 7.6875 -8.9375 C 7.300781 -7.128906 5.855469 -5.105469 3.988281 -5.007812 C 3.988281 -6.261719 4.140625 -7.472656 4.335938 -8.207031 Z M 4.335938 -8.207031 "/></g></g></g><g clip-path="url(#2f51618a4a)"><g fill="#2b2b2b" fill-opacity="1"><g transform="translate(111.68998, 25.008436)"><g><path d="M 7.320312 -2.003906 C 8.167969 -3.429688 7.511719 -4.757812 6.085938 -4.757812 C 5.375 -4.757812 4.488281 -4.429688 3.488281 -3.640625 C 4.566406 -2.832031 4.96875 -0.945312 3.949219 -0.308594 C 3.757812 -0.191406 3.523438 -0.136719 3.292969 -0.136719 C 2.8125 -0.136719 2.273438 -0.386719 1.925781 -0.808594 C 0.171875 -2.851562 4.027344 -5.144531 5.722656 -5.414062 C 5.433594 -7.359375 5.394531 -9.34375 5.566406 -11.382812 L 7.570312 -11.382812 L 7.472656 -11.960938 L 5.625 -11.960938 C 5.757812 -13.175781 5.972656 -14.40625 6.28125 -15.679688 L 5.703125 -15.679688 C 4.796875 -12.445312 1.253906 -11.960938 -0.0390625 -11.960938 L -0.171875 -11.382812 C 0.925781 -11.171875 1.617188 -10.515625 1.695312 -8.550781 C 1.753906 -7.070312 1.578125 -5.46875 0.980469 -3.640625 C 0.0976562 -0.945312 1.523438 0.421875 3.351562 0.421875 C 4.738281 0.421875 6.375 -0.386719 7.320312 -2.003906 Z M 7.320312 -2.003906 "/></g></g></g></g></svg>